<?xml version="1.0" encoding="utf-8" standalone="no"?>
<!DOCTYPE svg PUBLIC "-//W3C//DTD SVG 1.1//EN"
  "http://www.w3.org/Graphics/SVG/1.1/DTD/svg11.dtd">
<svg xmlns:xlink="http://www.w3.org/1999/xlink" width="293.4pt" height="291.6pt" viewBox="0 0 293.4 291.6" xmlns="http://www.w3.org/2000/svg" version="1.1">
 <metadata>
  <rdf:RDF xmlns:dc="http://purl.org/dc/elements/1.1/" xmlns:cc="http://creativecommons.org/ns#" xmlns:rdf="http://www.w3.org/1999/02/22-rdf-syntax-ns#">
   <cc:Work>
    <dc:type rdf:resource="http://purl.org/dc/dcmitype/StillImage"/>
    <dc:date>2024-06-24T23:15:23.512976</dc:date>
    <dc:format>image/svg+xml</dc:format>
    <dc:creator>
     <cc:Agent>
      <dc:title>Matplotlib v3.9.0, https://matplotlib.org/</dc:title>
     </cc:Agent>
    </dc:creator>
   </cc:Work>
  </rdf:RDF>
 </metadata>
 <defs>
  <style type="text/css">*{stroke-linejoin: round; stroke-linecap: butt}</style>
 </defs>
 <g id="figure_1">
  <g id="patch_1">
   <path d="M 0 291.6 
L 293.4 291.6 
L 293.4 0 
L 0 0 
L 0 291.6 
z
" style="fill: none"/>
  </g>
  <g id="axes_1">
   <g id="patch_2">
    <path d="M 7.2 284.4 
L 286.2 284.4 
L 286.2 7.2 
L 7.2 7.2 
L 7.2 284.4 
z
" style="fill: none"/>
   </g>
   <g id="patch_3">
    <path d="M 7.2 243.799814 
L 7.73055 243.799814 
L 8.2611 243.799814 
L 8.79165 243.799814 
L 9.322201 243.799814 
L 9.852751 243.799814 
L 10.383301 243.799814 
L 10.913851 243.799814 
L 11.444401 243.799814 
L 11.974951 243.799814 
L 12.505502 243.799814 
L 13.036052 243.799814 
L 13.566602 243.799814 
L 14.097152 243.799814 
L 14.627702 243.799814 
L 15.158252 243.799814 
L 15.688802 243.799814 
L 16.219353 243.799814 
L 16.749903 243.799814 
L 17.280453 243.799814 
L 17.811003 243.799814 
L 18.341553 243.799814 
L 18.872103 243.799814 
L 19.402653 243.799814 
L 19.933204 243.799814 
L 20.463754 243.799814 
L 20.994304 243.799814 
L 21.524854 243.799814 
L 22.055404 243.799814 
L 22.585954 243.799814 
L 23.116505 243.799814 
L 23.647055 243.799814 
L 24.177605 243.799814 
L 24.708155 243.799814 
L 25.238705 243.799814 
L 25.769255 243.799814 
L 26.299805 243.799814 
L 26.830356 243.799814 
L 27.360906 243.799814 
L 27.891456 243.799814 
L 28.422006 243.799814 
L 28.952556 243.799814 
L 29.483106 243.799814 
L 30.013657 243.799814 
L 30.544207 243.799814 
L 31.074757 243.799814 
L 31.605307 243.799814 
L 32.135857 243.799814 
L 32.666407 243.799814 
L 33.196957 243.799814 
L 33.727508 243.210344 
L 34.258058 242.403705 
L 34.788608 241.553567 
L 35.319158 240.658751 
L 35.849708 239.718142 
L 36.380258 238.730699 
L 36.910808 237.695462 
L 37.441359 236.611568 
L 37.971909 235.478252 
L 38.502459 234.294866 
L 39.033009 233.060881 
L 39.563559 231.775902 
L 40.094109 230.439673 
L 40.62466 229.052092 
L 41.15521 227.613216 
L 41.68576 226.123271 
L 42.21631 224.582661 
L 42.74686 222.991974 
L 43.27741 221.351992 
L 43.80796 219.663695 
L 44.338511 217.928269 
L 44.869061 216.147109 
L 45.399611 214.321824 
L 45.930161 212.454242 
L 46.460711 210.546408 
L 46.991261 208.600588 
L 47.521812 206.619269 
L 48.052362 204.605155 
L 48.582912 202.561168 
L 49.113462 200.49044 
L 49.644012 198.396311 
L 50.174562 196.282319 
L 50.705112 194.152197 
L 51.235663 192.009857 
L 51.766213 189.859385 
L 52.296763 187.705025 
L 52.827313 185.551168 
L 53.357863 183.402337 
L 53.888413 181.263169 
L 54.418963 179.138399 
L 54.949514 177.032844 
L 55.480064 174.95138 
L 56.010614 172.898924 
L 56.541164 170.880415 
L 57.071714 168.900788 
L 57.602264 166.964955 
L 58.132815 165.07778 
L 58.663365 163.244061 
L 59.193915 161.468501 
L 59.724465 159.755687 
L 60.255015 158.110067 
L 60.785565 156.535931 
L 61.316115 155.037382 
L 61.846666 153.618317 
L 62.377216 152.282408 
L 62.907766 151.033081 
L 63.438316 149.873493 
L 63.968866 148.806518 
L 64.499416 147.834731 
L 65.029967 146.960387 
L 65.560517 146.185414 
L 66.091067 145.511394 
L 66.621617 144.939558 
L 67.152167 144.470774 
L 67.682717 144.105538 
L 68.213267 143.843975 
L 68.743818 143.685829 
L 69.274368 143.630465 
L 69.804918 143.67687 
L 70.335468 143.823653 
L 70.866018 144.069054 
L 71.396568 144.410944 
L 71.927118 144.846839 
L 72.457669 145.373905 
L 72.988219 145.988976 
L 73.518769 146.688562 
L 74.049319 147.468866 
L 74.579869 148.325799 
L 75.110419 149.255001 
L 75.64097 150.251858 
L 76.17152 151.311521 
L 76.70207 152.428929 
L 77.23262 153.598829 
L 77.76317 154.8158 
L 78.29372 156.074276 
L 78.82427 157.368569 
L 79.354821 158.692891 
L 79.885371 160.041382 
L 80.415921 161.408128 
L 80.946471 162.787191 
L 81.477021 164.172626 
L 82.007571 165.558507 
L 82.538121 166.938948 
L 83.068672 168.308128 
L 83.599222 169.660306 
L 84.129772 170.989843 
L 84.660322 172.291223 
L 85.190872 173.559068 
L 85.721422 174.788156 
L 86.251973 175.973436 
L 86.782523 177.110042 
L 87.313073 178.193306 
L 87.843623 179.218771 
L 88.374173 180.1822 
L 88.904723 181.079585 
L 89.435273 181.907154 
L 89.965824 182.661381 
L 90.496374 183.338988 
L 91.026924 183.93695 
L 91.557474 184.452498 
L 92.088024 184.88312 
L 92.618574 185.226564 
L 93.149125 185.480832 
L 93.679675 185.644187 
L 94.210225 185.715142 
L 94.740775 185.692464 
L 95.271325 185.575165 
L 95.801875 185.362501 
L 96.332425 185.053963 
L 96.862976 184.649275 
L 97.393526 184.148386 
L 97.924076 183.551463 
L 98.454626 182.858882 
L 98.985176 182.071228 
L 99.515726 181.189277 
L 100.046276 180.213997 
L 100.576827 179.146535 
L 101.107377 177.988213 
L 101.637927 176.740516 
L 102.168477 175.405088 
L 102.699027 173.98372 
L 103.229577 172.478347 
L 103.760128 170.891038 
L 104.290678 169.22399 
L 104.821228 167.479517 
L 105.351778 165.660049 
L 105.882328 163.768122 
L 106.412878 161.806371 
L 106.943428 159.777524 
L 107.473979 157.6844 
L 108.004529 155.529898 
L 108.535079 153.316992 
L 109.065629 151.048732 
L 109.596179 148.728229 
L 110.126729 146.35866 
L 110.65728 143.943256 
L 111.18783 141.485302 
L 111.71838 138.988132 
L 112.24893 136.455121 
L 112.77948 133.889687 
L 113.31003 131.295283 
L 113.84058 128.675393 
L 114.371131 126.033533 
L 114.901681 123.373239 
L 115.432231 120.698072 
L 115.962781 118.011609 
L 116.493331 115.317441 
L 117.023881 112.619168 
L 117.554431 109.920398 
L 118.084982 107.224742 
L 118.615532 104.535807 
L 119.146082 101.857198 
L 119.676632 99.19251 
L 120.207182 96.545324 
L 120.737732 93.919207 
L 121.268283 91.317701 
L 121.798833 88.744326 
L 122.329383 86.202571 
L 122.859933 83.69589 
L 123.390483 81.2277 
L 123.921033 78.801376 
L 124.451583 76.420242 
L 124.982134 74.087573 
L 125.512684 71.806586 
L 126.043234 69.580438 
L 126.573784 67.412216 
L 127.104334 65.30494 
L 127.634884 63.261554 
L 128.165435 61.284919 
L 128.695985 59.377814 
L 129.226535 57.542928 
L 129.757085 55.782855 
L 130.287635 54.100092 
L 130.818185 52.497031 
L 131.348735 50.975961 
L 131.879286 49.539057 
L 132.409836 48.188379 
L 132.940386 46.925872 
L 133.470936 45.753355 
L 134.001486 44.672523 
L 134.532036 43.684944 
L 135.062586 42.792051 
L 135.593137 41.995147 
L 136.123687 41.295396 
L 136.654237 40.693824 
L 137.184787 40.191315 
L 137.715337 39.788612 
L 138.245887 39.486316 
L 138.776438 39.28488 
L 139.306988 39.184615 
L 139.837538 39.185685 
L 140.368088 39.288107 
L 140.898638 39.491755 
L 141.429188 39.796356 
L 141.959738 40.201494 
L 142.490289 40.706609 
L 143.020839 41.311001 
L 143.551389 42.01383 
L 144.081939 42.814116 
L 144.612489 43.710748 
L 145.143039 44.702479 
L 145.67359 45.787935 
L 146.20414 46.965613 
L 146.73469 48.23389 
L 147.26524 49.591021 
L 147.79579 51.03515 
L 148.32634 52.564306 
L 148.85689 54.176415 
L 149.387441 55.869299 
L 149.917991 57.640683 
L 150.448541 59.488202 
L 150.979091 61.409403 
L 151.509641 63.401749 
L 152.040191 65.462631 
L 152.570741 67.589366 
L 153.101292 69.779205 
L 153.631842 72.02934 
L 154.162392 74.336908 
L 154.692942 76.698996 
L 155.223492 79.112649 
L 155.754042 81.574869 
L 156.284593 84.082629 
L 156.815143 86.632871 
L 157.345693 89.222513 
L 157.876243 91.848456 
L 158.406793 94.507583 
L 158.937343 97.19677 
L 159.467893 99.912884 
L 159.998444 102.652789 
L 160.528994 105.413349 
L 161.059544 108.191431 
L 161.590094 110.983906 
L 162.120644 113.787652 
L 162.651194 116.599554 
L 163.181745 119.416507 
L 163.712295 122.235414 
L 164.242845 125.053186 
L 164.773395 127.866742 
L 165.303945 130.673004 
L 165.834495 133.468901 
L 166.365045 136.251359 
L 166.895596 139.017302 
L 167.426146 141.763646 
L 167.956696 144.487293 
L 168.487246 147.185128 
L 169.017796 149.85401 
L 169.548346 152.490766 
L 170.078896 155.092185 
L 170.609447 157.65501 
L 171.139997 160.175928 
L 171.670547 162.651562 
L 172.201097 165.078466 
L 172.731647 167.453111 
L 173.262197 169.771881 
L 173.792748 172.031064 
L 174.323298 174.22684 
L 174.853848 176.355283 
L 175.384398 178.412345 
L 175.914948 180.393859 
L 176.445498 182.295529 
L 176.976048 184.112933 
L 177.506599 185.84152 
L 178.037149 187.476612 
L 178.567699 189.01341 
L 179.098249 190.446999 
L 179.628799 191.772358 
L 180.159349 192.984373 
L 180.6899 194.077854 
L 181.22045 195.047553 
L 181.751 195.88819 
L 182.28155 196.594476 
L 182.8121 197.161148 
L 183.34265 197.583004 
L 183.8732 197.854938 
L 184.403751 197.971987 
L 184.934301 197.929377 
L 185.464851 197.722573 
L 185.995401 197.347332 
L 186.525951 196.799761 
L 187.056501 196.076375 
L 187.587051 195.17416 
L 188.117602 194.090637 
L 188.648152 192.823921 
L 189.178702 191.372794 
L 189.709252 189.736758 
L 190.239802 187.916108 
L 190.770352 185.911986 
L 191.300903 183.726439 
L 191.831453 181.362474 
L 192.362003 178.824105 
L 192.892553 176.116397 
L 193.423103 173.245498 
L 193.953653 170.218669 
L 194.484203 167.044303 
L 195.014754 163.731935 
L 195.545304 160.292238 
L 196.075854 156.737017 
L 196.606404 153.07918 
L 197.136954 149.332709 
L 197.667504 145.512607 
L 198.198055 141.634846 
L 198.728605 137.716291 
L 199.259155 133.77462 
L 199.789705 129.828228 
L 200.320255 125.896121 
L 200.850805 121.997803 
L 201.381355 118.15315 
L 201.911906 114.382274 
L 202.442456 110.705389 
L 202.973006 107.142656 
L 203.503556 103.714042 
L 204.034106 100.439161 
L 204.564656 97.337121 
L 205.095206 94.426372 
L 205.625757 91.724555 
L 206.156307 89.248353 
L 206.686857 87.013354 
L 207.217407 85.033916 
L 207.747957 83.323043 
L 208.278507 81.892272 
L 208.809058 80.751575 
L 209.339608 79.90927 
L 209.870158 79.371949 
L 210.400708 79.144425 
L 210.931258 79.229684 
L 211.461808 79.628873 
L 211.992358 80.341283 
L 212.522909 81.36437 
L 213.053459 82.693775 
L 213.584009 84.323376 
L 214.114559 86.245347 
L 214.645109 88.450233 
L 215.175659 90.927045 
L 215.706209 93.663362 
L 216.23676 96.645445 
L 216.76731 99.858371 
L 217.29786 103.28616 
L 217.82841 106.911923 
L 218.35896 110.71801 
L 218.88951 114.686156 
L 219.420061 118.797644 
L 219.950611 123.033448 
L 220.481161 127.374395 
L 221.011711 131.801306 
L 221.542261 136.295144 
L 222.072811 140.837151 
L 222.603361 145.408977 
L 223.133912 149.992803 
L 223.664462 154.571452 
L 224.195012 159.12849 
L 224.725562 163.648318 
L 225.256112 168.116245 
L 225.786662 172.518561 
L 226.317213 176.842585 
L 226.847763 181.07671 
L 227.378313 185.210432 
L 227.908863 189.234368 
L 228.439413 193.140262 
L 228.969963 196.92098 
L 229.500513 200.570499 
L 230.031064 204.083879 
L 230.561614 207.457236 
L 231.092164 210.687698 
L 231.622714 213.773363 
L 232.153264 216.713242 
L 232.683814 219.507207 
L 233.214364 222.155927 
L 233.744915 224.660809 
L 234.275465 227.023928 
L 234.806015 229.247963 
L 235.336565 231.336129 
L 235.867115 233.292112 
L 236.397665 235.120006 
L 236.928216 236.824244 
L 237.458766 238.409541 
L 237.989316 239.880836 
L 238.519866 241.243233 
L 239.050416 242.501953 
L 239.580966 243.662287 
L 240.111516 243.799814 
L 240.642067 243.799814 
L 241.172617 243.799814 
L 241.703167 243.799814 
L 242.233717 243.799814 
L 242.764267 243.799814 
L 243.294817 243.799814 
L 243.825368 243.799814 
L 244.355918 243.799814 
L 244.886468 243.799814 
L 245.417018 243.799814 
L 245.947568 243.799814 
L 246.478118 243.799814 
L 247.008668 243.799814 
L 247.539219 243.799814 
L 248.069769 243.799814 
L 248.600319 243.799814 
L 249.130869 243.799814 
L 249.661419 243.799814 
L 250.191969 243.799814 
L 250.722519 243.799814 
L 251.25307 243.799814 
L 251.78362 243.799814 
L 252.31417 243.799814 
L 252.84472 243.799814 
L 253.37527 243.799814 
L 253.90582 243.799814 
L 254.436371 243.799814 
L 254.966921 243.799814 
L 255.497471 243.799814 
L 256.028021 243.799814 
L 256.558571 243.799814 
L 257.089121 243.799814 
L 257.619671 243.799814 
L 258.150222 243.799814 
L 258.680772 243.799814 
L 259.211322 243.799814 
L 259.741872 243.799814 
L 260.272422 243.799814 
L 260.802972 243.799814 
L 261.333523 243.799814 
L 261.864073 243.799814 
L 262.394623 243.799814 
L 262.925173 243.799814 
L 263.455723 243.799814 
L 263.986273 243.799814 
L 264.516823 243.799814 
L 265.047374 243.799814 
L 265.577924 243.799814 
L 266.108474 243.799814 
L 266.639024 243.799814 
L 267.169574 243.799814 
L 267.700124 243.799814 
L 268.230674 243.799814 
L 268.761225 243.799814 
L 269.291775 243.799814 
L 269.822325 243.799814 
L 270.352875 243.799814 
L 270.883425 243.799814 
L 271.413975 243.799814 
L 271.944526 243.799814 
z
" clip-path="url(#pe44fdb60a9)" style="fill: #ecb365; opacity: 0.4"/>
   </g>
   <g id="patch_4">
    <path d="M 21.455474 252.415385 
L 21.986025 252.415385 
L 22.516575 252.415385 
L 23.047125 252.415385 
L 23.577675 252.415385 
L 24.108225 252.415385 
L 24.638775 252.415385 
L 25.169326 252.415385 
L 25.699876 252.415385 
L 26.230426 252.415385 
L 26.760976 252.415385 
L 27.291526 252.415385 
L 27.822076 252.415385 
L 28.352626 252.415385 
L 28.883177 252.415385 
L 29.413727 252.415385 
L 29.944277 252.415385 
L 30.474827 252.415385 
L 31.005377 252.415385 
L 31.535927 252.415385 
L 32.066477 252.415385 
L 32.597028 252.415385 
L 33.127578 252.415385 
L 33.658128 252.415385 
L 34.188678 252.415385 
L 34.719228 252.415385 
L 35.249778 252.415385 
L 35.780329 252.415385 
L 36.310879 252.415385 
L 36.841429 252.415385 
L 37.371979 252.415385 
L 37.902529 252.415385 
L 38.433079 252.415385 
L 38.963629 252.415385 
L 39.49418 252.415385 
L 40.02473 252.415385 
L 40.55528 252.415385 
L 41.08583 252.415385 
L 41.61638 252.415385 
L 42.14693 252.415385 
L 42.677481 252.415385 
L 43.208031 252.415385 
L 43.738581 252.415385 
L 44.269131 252.415385 
L 44.799681 252.415385 
L 45.330231 252.415385 
L 45.860781 252.415385 
L 46.391332 252.415385 
L 46.921882 252.415385 
L 47.452432 252.415385 
L 47.982982 252.415385 
L 48.513532 252.415385 
L 49.044082 252.415385 
L 49.574632 252.415385 
L 50.105183 252.415385 
L 50.635733 252.415385 
L 51.166283 252.415385 
L 51.696833 252.415385 
L 52.227383 252.415385 
L 52.757933 252.415385 
L 53.288484 252.415385 
L 53.819034 252.415385 
L 54.349584 252.415385 
L 54.880134 252.415385 
L 55.410684 252.415385 
L 55.941234 252.415385 
L 56.471784 252.415385 
L 57.002335 252.415385 
L 57.532885 252.415385 
L 58.063435 252.415385 
L 58.593985 252.415385 
L 59.124535 252.415385 
L 59.655085 252.415385 
L 60.185636 252.415385 
L 60.716186 252.415385 
L 61.246736 252.415385 
L 61.777286 252.415385 
L 62.307836 252.415385 
L 62.838386 252.415385 
L 63.368936 252.415385 
L 63.899487 252.415385 
L 64.430037 252.415385 
L 64.960587 252.415385 
L 65.491137 252.415385 
L 66.021687 252.415385 
L 66.552237 252.415385 
L 67.082787 252.415385 
L 67.613338 252.415385 
L 68.143888 252.415385 
L 68.674438 252.415385 
L 69.204988 252.415385 
L 69.735538 252.415385 
L 70.266088 252.415385 
L 70.796639 252.415385 
L 71.327189 252.415385 
L 71.857739 252.415385 
L 72.388289 252.415385 
L 72.918839 252.415385 
L 73.449389 252.415385 
L 73.979939 252.415385 
L 74.51049 252.415385 
L 75.04104 252.415385 
L 75.57159 252.415385 
L 76.10214 252.415385 
L 76.63269 252.415385 
L 77.16324 252.415385 
L 77.693791 252.415385 
L 78.224341 252.415385 
L 78.754891 252.415385 
L 79.285441 252.415385 
L 79.815991 252.415385 
L 80.346541 252.415385 
L 80.877091 252.415385 
L 81.407642 252.415385 
L 81.938192 252.415385 
L 82.468742 252.415385 
L 82.999292 252.415385 
L 83.529842 252.415385 
L 84.060392 252.415385 
L 84.590942 252.415385 
L 85.121493 252.415385 
L 85.652043 252.415385 
L 86.182593 252.415385 
L 86.713143 252.415385 
L 87.243693 252.415385 
L 87.774243 252.415385 
L 88.304794 252.415385 
L 88.835344 252.415385 
L 89.365894 252.415385 
L 89.896444 252.415385 
L 90.426994 252.415385 
L 90.957544 252.415385 
L 91.488094 252.415385 
L 92.018645 252.415385 
L 92.549195 252.415385 
L 93.079745 252.415385 
L 93.610295 252.415385 
L 94.140845 252.415385 
L 94.671395 252.415385 
L 95.201945 252.415385 
L 95.732496 252.415385 
L 96.263046 252.415385 
L 96.793596 252.415385 
L 97.324146 252.415385 
L 97.854696 252.415385 
L 98.385246 252.415385 
L 98.915797 252.415385 
L 99.446347 252.415385 
L 99.976897 252.415385 
L 100.507447 252.415385 
L 101.037997 252.415385 
L 101.568547 252.415385 
L 102.099097 252.415385 
L 102.629648 252.415385 
L 103.160198 252.415385 
L 103.690748 252.415385 
L 104.221298 252.415385 
L 104.751848 252.415385 
L 105.282398 252.415385 
L 105.812949 252.415385 
L 106.343499 252.415385 
L 106.874049 252.415385 
L 107.404599 252.415385 
L 107.935149 252.415385 
L 108.465699 252.415385 
L 108.996249 252.415385 
L 109.5268 252.415385 
L 110.05735 252.415385 
L 110.5879 252.415385 
L 111.11845 252.415385 
L 111.649 252.415385 
L 112.17955 252.415385 
L 112.7101 252.415385 
L 113.240651 252.415385 
L 113.771201 252.415385 
L 114.301751 252.415385 
L 114.832301 252.415385 
L 115.362851 252.415385 
L 115.893401 252.415385 
L 116.423952 252.415385 
L 116.954502 252.415385 
L 117.485052 252.415385 
L 118.015602 252.415385 
L 118.546152 252.415385 
L 119.076702 252.415385 
L 119.607252 252.415385 
L 120.137803 252.415385 
L 120.668353 252.415385 
L 121.198903 252.415385 
L 121.729453 252.415385 
L 122.260003 252.415385 
L 122.790553 252.415385 
L 123.321104 252.415385 
L 123.851654 252.415385 
L 124.382204 252.415385 
L 124.912754 252.415385 
L 125.443304 252.415385 
L 125.973854 252.415385 
L 126.504404 252.415385 
L 127.034955 252.415385 
L 127.565505 252.415385 
L 128.096055 252.415385 
L 128.626605 252.415385 
L 129.157155 252.415385 
L 129.687705 252.415385 
L 130.218255 252.415385 
L 130.748806 252.415385 
L 131.279356 252.415385 
L 131.809906 252.415385 
L 132.340456 252.415385 
L 132.871006 252.415385 
L 133.401556 252.415385 
L 133.932107 252.415385 
L 134.462657 252.415385 
L 134.993207 252.415385 
L 135.523757 252.415385 
L 136.054307 252.415385 
L 136.584857 252.415385 
L 137.115407 252.415385 
L 137.645958 252.415385 
L 138.176508 252.415385 
L 138.707058 252.415385 
L 139.237608 252.415385 
L 139.768158 252.415385 
L 140.298708 252.415385 
L 140.829259 252.415385 
L 141.359809 252.415385 
L 141.890359 252.415385 
L 142.420909 252.415385 
L 142.951459 252.415385 
L 143.482009 252.415385 
L 144.012559 252.415385 
L 144.54311 252.415385 
L 145.07366 252.415385 
L 145.60421 252.415385 
L 146.13476 252.415385 
L 146.66531 252.415385 
L 147.19586 252.415385 
L 147.72641 252.415385 
L 148.256961 252.415385 
L 148.787511 252.415385 
L 149.318061 252.415385 
L 149.848611 252.415385 
L 150.379161 252.415385 
L 150.909711 252.415385 
L 151.440262 252.415385 
L 151.970812 252.415385 
L 152.501362 252.415385 
L 153.031912 252.415385 
L 153.562462 252.415385 
L 154.093012 252.415385 
L 154.623562 252.415385 
L 155.154113 252.415385 
L 155.684663 252.415385 
L 156.215213 252.415385 
L 156.745763 252.415385 
L 157.276313 252.415385 
L 157.806863 252.415385 
L 158.337414 252.415385 
L 158.867964 252.415385 
L 159.398514 252.415385 
L 159.929064 252.415385 
L 160.459614 252.415385 
L 160.990164 252.415385 
L 161.520714 252.415385 
L 162.051265 252.415385 
L 162.581815 252.415385 
L 163.112365 252.415385 
L 163.642915 252.415385 
L 164.173465 252.415385 
L 164.704015 252.415385 
L 165.234565 252.415385 
L 165.765116 252.415385 
L 166.295666 252.415385 
L 166.826216 252.415385 
L 167.356766 252.415385 
L 167.887316 252.415385 
L 168.417866 252.415385 
L 168.948417 252.415385 
L 169.478967 252.415385 
L 170.009517 252.415385 
L 170.540067 252.415385 
L 171.070617 252.415385 
L 171.601167 252.415385 
L 172.131717 252.415385 
L 172.662268 252.415385 
L 173.192818 252.415385 
L 173.723368 252.415385 
L 174.253918 252.415385 
L 174.784468 252.415385 
L 175.315018 252.415385 
L 175.845569 252.415385 
L 176.376119 252.415385 
L 176.906669 252.415385 
L 177.437219 252.415385 
L 177.967769 252.415385 
L 178.498319 252.415385 
L 179.028869 252.415385 
L 179.55942 252.415385 
L 180.08997 252.415385 
L 180.62052 252.415385 
L 181.15107 252.415385 
L 181.68162 252.415385 
L 182.21217 252.415385 
L 182.74272 252.415385 
L 183.273271 252.415385 
L 183.803821 252.415385 
L 184.334371 252.415385 
L 184.864921 252.415385 
L 185.395471 252.415385 
L 185.926021 252.415385 
L 186.456572 252.415385 
L 186.987122 252.415385 
L 187.517672 252.415385 
L 188.048222 252.415385 
L 188.578772 252.415385 
L 189.109322 252.415385 
L 189.639872 252.415385 
L 190.170423 252.415385 
L 190.700973 252.415385 
L 191.231523 252.415385 
L 191.762073 252.415385 
L 192.292623 252.415385 
L 192.823173 252.415385 
L 193.353724 252.415385 
L 193.884274 252.415385 
L 194.414824 252.415385 
L 194.945374 252.415385 
L 195.475924 252.415385 
L 196.006474 252.415385 
L 196.537024 251.982095 
L 197.067575 250.796781 
L 197.598125 249.511857 
L 198.128675 248.122081 
L 198.659225 246.622298 
L 199.189775 245.007485 
L 199.720325 243.272808 
L 200.250875 241.413674 
L 200.781426 239.425792 
L 201.311976 237.305238 
L 201.842526 235.048516 
L 202.373076 232.652622 
L 202.903626 230.115117 
L 203.434176 227.434187 
L 203.964727 224.608712 
L 204.495277 221.638335 
L 205.025827 218.523517 
L 205.556377 215.265604 
L 206.086927 211.866877 
L 206.617477 208.330607 
L 207.148027 204.661095 
L 207.678578 200.863714 
L 208.209128 196.944937 
L 208.739678 192.912356 
L 209.270228 188.774696 
L 209.800778 184.541816 
L 210.331328 180.224699 
L 210.861879 175.83543 
L 211.392429 171.387163 
L 211.922979 166.894077 
L 212.453529 162.371319 
L 212.984079 157.834933 
L 213.514629 153.301779 
L 214.045179 148.789439 
L 214.57573 144.316117 
L 215.10628 139.900519 
L 215.63683 135.561731 
L 216.16738 131.319089 
L 216.69793 127.192038 
L 217.22848 123.199985 
L 217.75903 119.362152 
L 218.289581 115.697422 
L 218.820131 112.224189 
L 219.350681 108.960199 
L 219.881231 105.922404 
L 220.411781 103.126818 
L 220.942331 100.58837 
L 221.472882 98.320777 
L 222.003432 96.336417 
L 222.533982 94.646221 
L 223.064532 93.259567 
L 223.595082 92.184197 
L 224.125632 91.426147 
L 224.656182 90.989683 
L 225.186733 90.877271 
L 225.717283 91.089544 
L 226.247833 91.625304 
L 226.778383 92.481529 
L 227.308933 93.653401 
L 227.839483 95.134355 
L 228.370033 96.916136 
L 228.900584 98.988878 
L 229.431134 101.341194 
L 229.961684 103.960282 
L 230.492234 106.832036 
L 231.022784 109.941181 
L 231.553334 113.2714 
L 232.083885 116.805478 
L 232.614435 120.525455 
L 233.144985 124.41277 
L 233.675535 128.44842 
L 234.206085 132.61311 
L 234.736635 136.887403 
L 235.267185 141.251876 
L 235.797736 145.687253 
L 236.328286 150.174552 
L 236.858836 154.695208 
L 237.389386 159.231198 
L 237.919936 163.76515 
L 238.450486 168.280447 
L 238.981037 172.761312 
L 239.511587 177.192889 
L 240.042137 181.56131 
L 240.572687 185.853745 
L 241.103237 190.058444 
L 241.633787 194.164769 
L 242.164337 198.16321 
L 242.694888 202.045391 
L 243.225438 205.804065 
L 243.755988 209.433102 
L 244.286538 212.927461 
L 244.817088 216.283162 
L 245.347638 219.497244 
L 245.878188 222.56772 
L 246.408739 225.493521 
L 246.939289 228.274446 
L 247.469839 230.911093 
L 248.000389 233.404802 
L 248.530939 235.757586 
L 249.061489 237.972066 
L 249.59204 240.051404 
L 250.12259 241.999235 
L 250.65314 243.819603 
L 251.18369 245.516897 
L 251.71424 247.095791 
L 252.24479 248.561184 
L 252.77534 249.918144 
L 253.305891 251.171858 
L 253.836441 252.327584 
L 254.366991 252.415385 
L 254.897541 252.415385 
L 255.428091 252.415385 
L 255.958641 252.415385 
L 256.489192 252.415385 
L 257.019742 252.415385 
L 257.550292 252.415385 
L 258.080842 252.415385 
L 258.611392 252.415385 
L 259.141942 252.415385 
L 259.672492 252.415385 
L 260.203043 252.415385 
L 260.733593 252.415385 
L 261.264143 252.415385 
L 261.794693 252.415385 
L 262.325243 252.415385 
L 262.855793 252.415385 
L 263.386343 252.415385 
L 263.916894 252.415385 
L 264.447444 252.415385 
L 264.977994 252.415385 
L 265.508544 252.415385 
L 266.039094 252.415385 
L 266.569644 252.415385 
L 267.100195 252.415385 
L 267.630745 252.415385 
L 268.161295 252.415385 
L 268.691845 252.415385 
L 269.222395 252.415385 
L 269.752945 252.415385 
L 270.283495 252.415385 
L 270.814046 252.415385 
L 271.344596 252.415385 
L 271.875146 252.415385 
L 272.405696 252.415385 
L 272.936246 252.415385 
L 273.466796 252.415385 
L 273.997347 252.415385 
L 274.527897 252.415385 
L 275.058447 252.415385 
L 275.588997 252.415385 
L 276.119547 252.415385 
L 276.650097 252.415385 
L 277.180647 252.415385 
L 277.711198 252.415385 
L 278.241748 252.415385 
L 278.772298 252.415385 
L 279.302848 252.415385 
L 279.833398 252.415385 
L 280.363948 252.415385 
L 280.894498 252.415385 
L 281.425049 252.415385 
L 281.955599 252.415385 
L 282.486149 252.415385 
L 283.016699 252.415385 
L 283.547249 252.415385 
L 284.077799 252.415385 
L 284.60835 252.415385 
L 285.1389 252.415385 
L 285.66945 252.415385 
L 286.2 252.415385 
z
" clip-path="url(#pe44fdb60a9)" style="fill: #00a9ff; opacity: 0.5"/>
   </g>
   <g id="patch_5">
    <path d="M 21.455474 252.415385 
L 21.986025 252.415385 
L 22.516575 252.415385 
L 23.047125 252.415385 
L 23.577675 252.415385 
L 24.108225 252.415385 
L 24.638775 252.415385 
L 25.169326 252.415385 
L 25.699876 252.415385 
L 26.230426 252.415385 
L 26.760976 252.415385 
L 27.291526 252.415385 
L 27.822076 252.415385 
L 28.352626 252.415385 
L 28.883177 252.415385 
L 29.413727 252.415385 
L 29.944277 252.415385 
L 30.474827 252.415385 
L 31.005377 252.415385 
L 31.535927 252.415385 
L 32.066477 252.415385 
L 32.597028 252.415385 
L 33.127578 252.415385 
L 33.658128 252.415385 
L 34.188678 252.415385 
L 34.719228 252.415385 
L 35.249778 252.415385 
L 35.780329 252.415385 
L 36.310879 252.415385 
L 36.841429 252.415385 
L 37.371979 252.415385 
L 37.902529 252.415385 
L 38.433079 252.415385 
L 38.963629 252.415385 
L 39.49418 252.415385 
L 40.02473 252.415385 
L 40.55528 252.415385 
L 41.08583 252.415385 
L 41.61638 252.415385 
L 42.14693 252.415385 
L 42.677481 252.415385 
L 43.208031 252.415385 
L 43.738581 252.415385 
L 44.269131 252.415385 
L 44.799681 252.415385 
L 45.330231 252.415385 
L 45.860781 252.415385 
L 46.391332 252.415385 
L 46.921882 252.415385 
L 47.452432 252.415385 
L 47.982982 252.415385 
L 48.513532 252.415385 
L 49.044082 252.415385 
L 49.574632 252.415385 
L 50.105183 252.415385 
L 50.635733 252.415385 
L 51.166283 252.415385 
L 51.696833 252.415385 
L 52.227383 252.415385 
L 52.757933 252.415385 
L 53.288484 252.415385 
L 53.819034 252.415385 
L 54.349584 252.415385 
L 54.880134 252.415385 
L 55.410684 252.415385 
L 55.941234 252.415385 
L 56.471784 252.415385 
L 57.002335 252.415385 
L 57.532885 252.415385 
L 58.063435 252.415385 
L 58.593985 252.415385 
L 59.124535 252.415385 
L 59.655085 252.415385 
L 60.185636 252.415385 
L 60.716186 252.415385 
L 61.246736 252.415385 
L 61.777286 252.415385 
L 62.307836 252.415385 
L 62.838386 252.415385 
L 63.368936 252.415385 
L 63.899487 252.415385 
L 64.430037 252.415385 
L 64.960587 252.415385 
L 65.491137 252.415385 
L 66.021687 252.415385 
L 66.552237 252.415385 
L 67.082787 252.415385 
L 67.613338 252.415385 
L 68.143888 252.415385 
L 68.674438 252.415385 
L 69.204988 252.415385 
L 69.735538 252.415385 
L 70.266088 252.415385 
L 70.796639 252.415385 
L 71.327189 252.415385 
L 71.857739 252.415385 
L 72.388289 252.415385 
L 72.918839 252.415385 
L 73.449389 252.415385 
L 73.979939 252.415385 
L 74.51049 252.415385 
L 75.04104 252.415385 
L 75.57159 252.415385 
L 76.10214 252.415385 
L 76.63269 252.415385 
L 77.16324 252.415385 
L 77.693791 252.415385 
L 78.224341 252.415385 
L 78.754891 252.415385 
L 79.285441 252.415385 
L 79.815991 252.415385 
L 80.346541 252.415385 
L 80.877091 252.415385 
L 81.407642 252.415385 
L 81.938192 252.415385 
L 82.468742 252.415385 
L 82.999292 252.415385 
L 83.529842 252.415385 
L 84.060392 252.415385 
L 84.590942 252.415385 
L 85.121493 252.415385 
L 85.652043 252.415385 
L 86.182593 252.415385 
L 86.713143 252.415385 
L 87.243693 252.415385 
L 87.774243 252.415385 
L 88.304794 252.415385 
L 88.835344 252.415385 
L 89.365894 252.415385 
L 89.896444 252.415385 
L 90.426994 252.415385 
L 90.957544 252.415385 
L 91.488094 252.415385 
L 92.018645 252.366391 
L 92.549195 251.779088 
L 93.079745 251.165568 
L 93.610295 250.525015 
L 94.140845 249.856608 
L 94.671395 249.159523 
L 95.201945 248.432933 
L 95.732496 247.676014 
L 96.263046 246.887941 
L 96.793596 246.067892 
L 97.324146 245.21505 
L 97.854696 244.328605 
L 98.385246 243.407756 
L 98.915797 242.451711 
L 99.446347 241.459692 
L 99.976897 240.430935 
L 100.507447 239.364693 
L 101.037997 238.260238 
L 101.568547 237.116862 
L 102.099097 235.933883 
L 102.629648 234.710644 
L 103.160198 233.446516 
L 103.690748 232.140902 
L 104.221298 230.793237 
L 104.751848 229.402994 
L 105.282398 227.969684 
L 105.812949 226.492859 
L 106.343499 224.972115 
L 106.874049 223.407095 
L 107.404599 221.79749 
L 107.935149 220.143045 
L 108.465699 218.443556 
L 108.996249 216.698879 
L 109.5268 214.908927 
L 110.05735 213.073678 
L 110.5879 211.193171 
L 111.11845 209.267513 
L 111.649 207.296881 
L 112.17955 205.281522 
L 112.7101 203.221757 
L 113.240651 201.117982 
L 113.771201 198.970669 
L 114.301751 196.780373 
L 114.832301 194.547725 
L 115.362851 192.273441 
L 115.893401 189.958322 
L 116.423952 187.60325 
L 116.954502 185.209196 
L 117.485052 182.777218 
L 118.015602 180.308461 
L 118.546152 177.804156 
L 119.076702 175.265627 
L 119.607252 172.694283 
L 120.137803 170.091624 
L 120.668353 167.459237 
L 121.198903 164.798797 
L 121.729453 162.112067 
L 122.260003 159.400896 
L 122.790553 156.667216 
L 123.321104 153.913046 
L 123.851654 151.140485 
L 124.382204 148.351713 
L 124.912754 145.548987 
L 125.443304 142.734639 
L 125.973854 139.911076 
L 126.504404 137.080775 
L 127.034955 134.246278 
L 127.565505 131.410192 
L 128.096055 128.575185 
L 128.626605 125.743981 
L 129.157155 122.919355 
L 129.687705 120.104133 
L 130.218255 117.301183 
L 130.748806 114.513412 
L 131.279356 111.743764 
L 131.809906 108.995209 
L 132.340456 106.270746 
L 132.871006 103.57339 
L 133.401556 100.906171 
L 133.932107 98.272127 
L 134.462657 95.674299 
L 134.993207 93.115725 
L 135.523757 90.599435 
L 136.054307 88.128443 
L 136.584857 85.705744 
L 137.115407 83.334303 
L 137.645958 81.017057 
L 138.176508 78.756902 
L 138.707058 76.556689 
L 139.237608 74.419218 
L 139.768158 72.347235 
L 140.298708 70.343423 
L 140.829259 68.410394 
L 141.359809 66.550689 
L 141.890359 64.766771 
L 142.420909 63.061014 
L 142.951459 61.435706 
L 143.482009 59.893037 
L 144.012559 58.435099 
L 144.54311 57.063879 
L 145.07366 55.781254 
L 145.60421 54.588988 
L 146.13476 53.488727 
L 146.66531 52.481996 
L 147.19586 51.570195 
L 147.72641 50.754597 
L 148.256961 50.036341 
L 148.787511 49.416436 
L 149.318061 48.895752 
L 149.848611 48.475022 
L 150.379161 48.15484 
L 150.909711 47.935657 
L 151.440262 47.817784 
L 151.970812 47.801385 
L 152.501362 47.886486 
L 153.031912 48.072965 
L 153.562462 48.360559 
L 154.093012 48.748863 
L 154.623562 49.237327 
L 155.154113 49.825265 
L 155.684663 50.511849 
L 156.215213 51.296117 
L 156.745763 52.17697 
L 157.276313 53.153178 
L 157.806863 54.223382 
L 158.337414 55.386098 
L 158.867964 56.639717 
L 159.398514 57.982514 
L 159.929064 59.412648 
L 160.459614 60.928165 
L 160.990164 62.52701 
L 161.520714 64.207021 
L 162.051265 65.965943 
L 162.581815 67.801428 
L 163.112365 69.711041 
L 163.642915 71.692268 
L 164.173465 73.742517 
L 164.704015 75.859127 
L 165.234565 78.039373 
L 165.765116 80.280472 
L 166.295666 82.579588 
L 166.826216 84.933839 
L 167.356766 87.340301 
L 167.887316 89.796017 
L 168.417866 92.298001 
L 168.948417 94.843244 
L 169.478967 97.428722 
L 170.009517 100.051398 
L 170.540067 102.708231 
L 171.070617 105.396183 
L 171.601167 108.112219 
L 172.131717 110.853318 
L 172.662268 113.616478 
L 173.192818 116.398717 
L 173.723368 119.197083 
L 174.253918 122.008656 
L 174.784468 124.830555 
L 175.315018 127.65994 
L 175.845569 130.494019 
L 176.376119 133.33005 
L 176.906669 136.165349 
L 177.437219 138.997287 
L 177.967769 141.823301 
L 178.498319 144.640892 
L 179.028869 147.447632 
L 179.55942 150.241163 
L 180.08997 153.019203 
L 180.62052 155.779548 
L 181.15107 158.520072 
L 181.68162 161.238731 
L 182.21217 163.933564 
L 182.74272 166.602695 
L 183.273271 169.244332 
L 183.803821 171.856774 
L 184.334371 174.438403 
L 184.864921 176.987692 
L 185.395471 179.503203 
L 185.926021 181.983584 
L 186.456572 184.427574 
L 186.987122 186.834 
L 187.517672 189.201776 
L 188.048222 191.529904 
L 188.578772 193.817472 
L 189.109322 196.063654 
L 189.639872 198.267706 
L 190.170423 200.42897 
L 190.700973 202.546867 
L 191.231523 204.620898 
L 191.762073 206.650642 
L 192.292623 208.635755 
L 192.823173 210.575965 
L 193.353724 212.471074 
L 193.884274 214.320953 
L 194.414824 216.12554 
L 194.945374 217.884838 
L 195.475924 219.598913 
L 196.006474 221.267891 
L 196.537024 222.891958 
L 197.067575 224.471351 
L 197.598125 226.006363 
L 198.128675 227.497335 
L 198.659225 228.944657 
L 199.189775 230.348762 
L 199.720325 231.710127 
L 200.250875 233.029267 
L 200.781426 234.306734 
L 201.311976 235.543116 
L 201.842526 236.739032 
L 202.373076 237.895129 
L 202.903626 239.012082 
L 203.434176 240.090592 
L 203.964727 241.131378 
L 204.495277 242.135183 
L 205.025827 243.102766 
L 205.556377 244.0349 
L 206.086927 244.932373 
L 206.617477 245.795983 
L 207.148027 246.626538 
L 207.678578 247.424852 
L 208.209128 248.191747 
L 208.739678 248.928044 
L 209.270228 249.634571 
L 209.800778 250.312154 
L 210.331328 250.961616 
L 210.861879 251.58378 
L 211.392429 252.179464 
L 211.922979 252.415385 
L 212.453529 252.415385 
L 212.984079 252.415385 
L 213.514629 252.415385 
L 214.045179 252.415385 
L 214.57573 252.415385 
L 215.10628 252.415385 
L 215.63683 252.415385 
L 216.16738 252.415385 
L 216.69793 252.415385 
L 217.22848 252.415385 
L 217.75903 252.415385 
L 218.289581 252.415385 
L 218.820131 252.415385 
L 219.350681 252.415385 
L 219.881231 252.415385 
L 220.411781 252.415385 
L 220.942331 252.415385 
L 221.472882 252.415385 
L 222.003432 252.415385 
L 222.533982 252.415385 
L 223.064532 252.415385 
L 223.595082 252.415385 
L 224.125632 252.415385 
L 224.656182 252.415385 
L 225.186733 252.415385 
L 225.717283 252.415385 
L 226.247833 252.415385 
L 226.778383 252.415385 
L 227.308933 252.415385 
L 227.839483 252.415385 
L 228.370033 252.415385 
L 228.900584 252.415385 
L 229.431134 252.415385 
L 229.961684 252.415385 
L 230.492234 252.415385 
L 231.022784 252.415385 
L 231.553334 252.415385 
L 232.083885 252.415385 
L 232.614435 252.415385 
L 233.144985 252.415385 
L 233.675535 252.415385 
L 234.206085 252.415385 
L 234.736635 252.415385 
L 235.267185 252.415385 
L 235.797736 252.415385 
L 236.328286 252.415385 
L 236.858836 252.415385 
L 237.389386 252.415385 
L 237.919936 252.415385 
L 238.450486 252.415385 
L 238.981037 252.415385 
L 239.511587 252.415385 
L 240.042137 252.415385 
L 240.572687 252.415385 
L 241.103237 252.415385 
L 241.633787 252.415385 
L 242.164337 252.415385 
L 242.694888 252.415385 
L 243.225438 252.415385 
L 243.755988 252.415385 
L 244.286538 252.415385 
L 244.817088 252.415385 
L 245.347638 252.415385 
L 245.878188 252.415385 
L 246.408739 252.415385 
L 246.939289 252.415385 
L 247.469839 252.415385 
L 248.000389 252.415385 
L 248.530939 252.415385 
L 249.061489 252.415385 
L 249.59204 252.415385 
L 250.12259 252.415385 
L 250.65314 252.415385 
L 251.18369 252.415385 
L 251.71424 252.415385 
L 252.24479 252.415385 
L 252.77534 252.415385 
L 253.305891 252.415385 
L 253.836441 252.415385 
L 254.366991 252.415385 
L 254.897541 252.415385 
L 255.428091 252.415385 
L 255.958641 252.415385 
L 256.489192 252.415385 
L 257.019742 252.415385 
L 257.550292 252.415385 
L 258.080842 252.415385 
L 258.611392 252.415385 
L 259.141942 252.415385 
L 259.672492 252.415385 
L 260.203043 252.415385 
L 260.733593 252.415385 
L 261.264143 252.415385 
L 261.794693 252.415385 
L 262.325243 252.415385 
L 262.855793 252.415385 
L 263.386343 252.415385 
L 263.916894 252.415385 
L 264.447444 252.415385 
L 264.977994 252.415385 
L 265.508544 252.415385 
L 266.039094 252.415385 
L 266.569644 252.415385 
L 267.100195 252.415385 
L 267.630745 252.415385 
L 268.161295 252.415385 
L 268.691845 252.415385 
L 269.222395 252.415385 
L 269.752945 252.415385 
L 270.283495 252.415385 
L 270.814046 252.415385 
L 271.344596 252.415385 
L 271.875146 252.415385 
L 272.405696 252.415385 
L 272.936246 252.415385 
L 273.466796 252.415385 
L 273.997347 252.415385 
L 274.527897 252.415385 
L 275.058447 252.415385 
L 275.588997 252.415385 
L 276.119547 252.415385 
L 276.650097 252.415385 
L 277.180647 252.415385 
L 277.711198 252.415385 
L 278.241748 252.415385 
L 278.772298 252.415385 
L 279.302848 252.415385 
L 279.833398 252.415385 
L 280.363948 252.415385 
L 280.894498 252.415385 
L 281.425049 252.415385 
L 281.955599 252.415385 
L 282.486149 252.415385 
L 283.016699 252.415385 
L 283.547249 252.415385 
L 284.077799 252.415385 
L 284.60835 252.415385 
L 285.1389 252.415385 
L 285.66945 252.415385 
L 286.2 252.415385 
z
" clip-path="url(#pe44fdb60a9)" style="fill: #069a8e; opacity: 0.5"/>
   </g>
   <g id="patch_6">
    <path d="M 21.455474 252.415385 
L 21.986025 252.415385 
L 22.516575 252.415385 
L 23.047125 252.415385 
L 23.577675 252.415385 
L 24.108225 252.415385 
L 24.638775 252.415385 
L 25.169326 252.415385 
L 25.699876 252.415385 
L 26.230426 252.415385 
L 26.760976 252.415385 
L 27.291526 252.415385 
L 27.822076 252.415385 
L 28.352626 252.415385 
L 28.883177 252.415385 
L 29.413727 252.415385 
L 29.944277 252.415385 
L 30.474827 252.415385 
L 31.005377 252.415385 
L 31.535927 252.415385 
L 32.066477 252.415385 
L 32.597028 252.415385 
L 33.127578 252.415385 
L 33.658128 252.415385 
L 34.188678 252.415385 
L 34.719228 252.415385 
L 35.249778 252.415385 
L 35.780329 252.415385 
L 36.310879 252.415385 
L 36.841429 252.415385 
L 37.371979 252.415385 
L 37.902529 252.415385 
L 38.433079 252.415385 
L 38.963629 252.415385 
L 39.49418 252.415385 
L 40.02473 252.415385 
L 40.55528 252.415385 
L 41.08583 252.415385 
L 41.61638 252.415385 
L 42.14693 252.415385 
L 42.677481 252.415385 
L 43.208031 252.415385 
L 43.738581 252.415385 
L 44.269131 252.415385 
L 44.799681 252.415385 
L 45.330231 252.415385 
L 45.860781 252.415385 
L 46.391332 252.415385 
L 46.921882 252.415385 
L 47.452432 252.415385 
L 47.982982 252.297732 
L 48.513532 251.525076 
L 49.044082 250.710819 
L 49.574632 249.853844 
L 50.105183 248.953095 
L 50.635733 248.007588 
L 51.166283 247.016421 
L 51.696833 245.97878 
L 52.227383 244.893955 
L 52.757933 243.761342 
L 53.288484 242.580457 
L 53.819034 241.350945 
L 54.349584 240.072588 
L 54.880134 238.745317 
L 55.410684 237.369215 
L 55.941234 235.944534 
L 56.471784 234.471695 
L 57.002335 232.951302 
L 57.532885 231.384144 
L 58.063435 229.771206 
L 58.593985 228.113672 
L 59.124535 226.41293 
L 59.655085 224.670578 
L 60.185636 222.888425 
L 60.716186 221.068495 
L 61.246736 219.213027 
L 61.777286 217.324475 
L 62.307836 215.405507 
L 62.838386 213.459004 
L 63.368936 211.488055 
L 63.899487 209.495952 
L 64.430037 207.486182 
L 64.960587 205.462427 
L 65.491137 203.428545 
L 66.021687 201.388566 
L 66.552237 199.346682 
L 67.082787 197.307229 
L 67.613338 195.274677 
L 68.143888 193.253615 
L 68.674438 191.248731 
L 69.204988 189.264802 
L 69.735538 187.306669 
L 70.266088 185.379221 
L 70.796639 183.487374 
L 71.327189 181.636055 
L 71.857739 179.830175 
L 72.388289 178.07461 
L 72.918839 176.374181 
L 73.449389 174.733629 
L 73.979939 173.157599 
L 74.51049 171.650608 
L 75.04104 170.217035 
L 75.57159 168.861093 
L 76.10214 167.586808 
L 76.63269 166.398004 
L 77.16324 165.298279 
L 77.693791 164.29099 
L 78.224341 163.379234 
L 78.754891 162.565834 
L 79.285441 161.853323 
L 79.815991 161.243931 
L 80.346541 160.739574 
L 80.877091 160.341843 
L 81.407642 160.051997 
L 81.938192 159.870955 
L 82.468742 159.799293 
L 82.999292 159.837238 
L 83.529842 159.984669 
L 84.060392 160.241119 
L 84.590942 160.605773 
L 85.121493 161.077477 
L 85.652043 161.65474 
L 86.182593 162.335745 
L 86.713143 163.118358 
L 87.243693 164.000138 
L 87.774243 164.97835 
L 88.304794 166.049978 
L 88.835344 167.211746 
L 89.365894 168.460126 
L 89.896444 169.791363 
L 90.426994 171.20149 
L 90.957544 172.68635 
L 91.488094 174.241612 
L 92.018645 175.8628 
L 92.549195 177.545306 
L 93.079745 179.284417 
L 93.610295 181.075333 
L 94.140845 182.913193 
L 94.671395 184.793093 
L 95.201945 186.710112 
L 95.732496 188.659326 
L 96.263046 190.635836 
L 96.793596 192.634784 
L 97.324146 194.651372 
L 97.854696 196.680882 
L 98.385246 198.718694 
L 98.915797 200.760299 
L 99.446347 202.801317 
L 99.976897 204.837512 
L 100.507447 206.864802 
L 101.037997 208.879275 
L 101.568547 210.877195 
L 102.099097 212.855013 
L 102.629648 214.809376 
L 103.160198 216.737133 
L 103.690748 218.635338 
L 104.221298 220.501257 
L 104.751848 222.33237 
L 105.282398 224.126373 
L 105.812949 225.881174 
L 106.343499 227.594899 
L 106.874049 229.265885 
L 107.404599 230.89268 
L 107.935149 232.474038 
L 108.465699 234.008914 
L 108.996249 235.496458 
L 109.5268 236.93601 
L 110.05735 238.327093 
L 110.5879 239.669406 
L 111.11845 240.962813 
L 111.649 242.207338 
L 112.17955 243.403153 
L 112.7101 244.550573 
L 113.240651 245.650044 
L 113.771201 246.702132 
L 114.301751 247.707517 
L 114.832301 248.666981 
L 115.362851 249.5814 
L 115.893401 250.451735 
L 116.423952 251.279019 
L 116.954502 252.064353 
L 117.485052 252.415385 
L 118.015602 252.415385 
L 118.546152 252.415385 
L 119.076702 252.415385 
L 119.607252 252.415385 
L 120.137803 252.415385 
L 120.668353 252.415385 
L 121.198903 252.415385 
L 121.729453 252.415385 
L 122.260003 252.415385 
L 122.790553 252.415385 
L 123.321104 252.415385 
L 123.851654 252.415385 
L 124.382204 252.415385 
L 124.912754 252.415385 
L 125.443304 252.415385 
L 125.973854 252.415385 
L 126.504404 252.415385 
L 127.034955 252.415385 
L 127.565505 252.415385 
L 128.096055 252.415385 
L 128.626605 252.415385 
L 129.157155 252.415385 
L 129.687705 252.415385 
L 130.218255 252.415385 
L 130.748806 252.415385 
L 131.279356 252.415385 
L 131.809906 252.415385 
L 132.340456 252.415385 
L 132.871006 252.415385 
L 133.401556 252.415385 
L 133.932107 252.415385 
L 134.462657 252.415385 
L 134.993207 252.415385 
L 135.523757 252.415385 
L 136.054307 252.415385 
L 136.584857 252.415385 
L 137.115407 252.415385 
L 137.645958 252.415385 
L 138.176508 252.415385 
L 138.707058 252.415385 
L 139.237608 252.415385 
L 139.768158 252.415385 
L 140.298708 252.415385 
L 140.829259 252.415385 
L 141.359809 252.415385 
L 141.890359 252.415385 
L 142.420909 252.415385 
L 142.951459 252.415385 
L 143.482009 252.415385 
L 144.012559 252.415385 
L 144.54311 252.415385 
L 145.07366 252.415385 
L 145.60421 252.415385 
L 146.13476 252.415385 
L 146.66531 252.415385 
L 147.19586 252.415385 
L 147.72641 252.415385 
L 148.256961 252.415385 
L 148.787511 252.415385 
L 149.318061 252.415385 
L 149.848611 252.415385 
L 150.379161 252.415385 
L 150.909711 252.415385 
L 151.440262 252.415385 
L 151.970812 252.415385 
L 152.501362 252.415385 
L 153.031912 252.415385 
L 153.562462 252.415385 
L 154.093012 252.415385 
L 154.623562 252.415385 
L 155.154113 252.415385 
L 155.684663 252.415385 
L 156.215213 252.415385 
L 156.745763 252.415385 
L 157.276313 252.415385 
L 157.806863 252.415385 
L 158.337414 252.415385 
L 158.867964 252.415385 
L 159.398514 252.415385 
L 159.929064 252.415385 
L 160.459614 252.415385 
L 160.990164 252.415385 
L 161.520714 252.415385 
L 162.051265 252.415385 
L 162.581815 252.415385 
L 163.112365 252.415385 
L 163.642915 252.415385 
L 164.173465 252.415385 
L 164.704015 252.415385 
L 165.234565 252.415385 
L 165.765116 252.415385 
L 166.295666 252.415385 
L 166.826216 252.415385 
L 167.356766 252.415385 
L 167.887316 252.415385 
L 168.417866 252.415385 
L 168.948417 252.415385 
L 169.478967 252.415385 
L 170.009517 252.415385 
L 170.540067 252.415385 
L 171.070617 252.415385 
L 171.601167 252.415385 
L 172.131717 252.415385 
L 172.662268 252.415385 
L 173.192818 252.415385 
L 173.723368 252.415385 
L 174.253918 252.415385 
L 174.784468 252.415385 
L 175.315018 252.415385 
L 175.845569 252.415385 
L 176.376119 252.415385 
L 176.906669 252.415385 
L 177.437219 252.415385 
L 177.967769 252.415385 
L 178.498319 252.415385 
L 179.028869 252.415385 
L 179.55942 252.415385 
L 180.08997 252.415385 
L 180.62052 252.415385 
L 181.15107 252.415385 
L 181.68162 252.415385 
L 182.21217 252.415385 
L 182.74272 252.415385 
L 183.273271 252.415385 
L 183.803821 252.415385 
L 184.334371 252.415385 
L 184.864921 252.415385 
L 185.395471 252.415385 
L 185.926021 252.415385 
L 186.456572 252.415385 
L 186.987122 252.415385 
L 187.517672 252.415385 
L 188.048222 252.415385 
L 188.578772 252.415385 
L 189.109322 252.415385 
L 189.639872 252.415385 
L 190.170423 252.415385 
L 190.700973 252.415385 
L 191.231523 252.415385 
L 191.762073 252.415385 
L 192.292623 252.415385 
L 192.823173 252.415385 
L 193.353724 252.415385 
L 193.884274 252.415385 
L 194.414824 252.415385 
L 194.945374 252.415385 
L 195.475924 252.415385 
L 196.006474 252.415385 
L 196.537024 252.415385 
L 197.067575 252.415385 
L 197.598125 252.415385 
L 198.128675 252.415385 
L 198.659225 252.415385 
L 199.189775 252.415385 
L 199.720325 252.415385 
L 200.250875 252.415385 
L 200.781426 252.415385 
L 201.311976 252.415385 
L 201.842526 252.415385 
L 202.373076 252.415385 
L 202.903626 252.415385 
L 203.434176 252.415385 
L 203.964727 252.415385 
L 204.495277 252.415385 
L 205.025827 252.415385 
L 205.556377 252.415385 
L 206.086927 252.415385 
L 206.617477 252.415385 
L 207.148027 252.415385 
L 207.678578 252.415385 
L 208.209128 252.415385 
L 208.739678 252.415385 
L 209.270228 252.415385 
L 209.800778 252.415385 
L 210.331328 252.415385 
L 210.861879 252.415385 
L 211.392429 252.415385 
L 211.922979 252.415385 
L 212.453529 252.415385 
L 212.984079 252.415385 
L 213.514629 252.415385 
L 214.045179 252.415385 
L 214.57573 252.415385 
L 215.10628 252.415385 
L 215.63683 252.415385 
L 216.16738 252.415385 
L 216.69793 252.415385 
L 217.22848 252.415385 
L 217.75903 252.415385 
L 218.289581 252.415385 
L 218.820131 252.415385 
L 219.350681 252.415385 
L 219.881231 252.415385 
L 220.411781 252.415385 
L 220.942331 252.415385 
L 221.472882 252.415385 
L 222.003432 252.415385 
L 222.533982 252.415385 
L 223.064532 252.415385 
L 223.595082 252.415385 
L 224.125632 252.415385 
L 224.656182 252.415385 
L 225.186733 252.415385 
L 225.717283 252.415385 
L 226.247833 252.415385 
L 226.778383 252.415385 
L 227.308933 252.415385 
L 227.839483 252.415385 
L 228.370033 252.415385 
L 228.900584 252.415385 
L 229.431134 252.415385 
L 229.961684 252.415385 
L 230.492234 252.415385 
L 231.022784 252.415385 
L 231.553334 252.415385 
L 232.083885 252.415385 
L 232.614435 252.415385 
L 233.144985 252.415385 
L 233.675535 252.415385 
L 234.206085 252.415385 
L 234.736635 252.415385 
L 235.267185 252.415385 
L 235.797736 252.415385 
L 236.328286 252.415385 
L 236.858836 252.415385 
L 237.389386 252.415385 
L 237.919936 252.415385 
L 238.450486 252.415385 
L 238.981037 252.415385 
L 239.511587 252.415385 
L 240.042137 252.415385 
L 240.572687 252.415385 
L 241.103237 252.415385 
L 241.633787 252.415385 
L 242.164337 252.415385 
L 242.694888 252.415385 
L 243.225438 252.415385 
L 243.755988 252.415385 
L 244.286538 252.415385 
L 244.817088 252.415385 
L 245.347638 252.415385 
L 245.878188 252.415385 
L 246.408739 252.415385 
L 246.939289 252.415385 
L 247.469839 252.415385 
L 248.000389 252.415385 
L 248.530939 252.415385 
L 249.061489 252.415385 
L 249.59204 252.415385 
L 250.12259 252.415385 
L 250.65314 252.415385 
L 251.18369 252.415385 
L 251.71424 252.415385 
L 252.24479 252.415385 
L 252.77534 252.415385 
L 253.305891 252.415385 
L 253.836441 252.415385 
L 254.366991 252.415385 
L 254.897541 252.415385 
L 255.428091 252.415385 
L 255.958641 252.415385 
L 256.489192 252.415385 
L 257.019742 252.415385 
L 257.550292 252.415385 
L 258.080842 252.415385 
L 258.611392 252.415385 
L 259.141942 252.415385 
L 259.672492 252.415385 
L 260.203043 252.415385 
L 260.733593 252.415385 
L 261.264143 252.415385 
L 261.794693 252.415385 
L 262.325243 252.415385 
L 262.855793 252.415385 
L 263.386343 252.415385 
L 263.916894 252.415385 
L 264.447444 252.415385 
L 264.977994 252.415385 
L 265.508544 252.415385 
L 266.039094 252.415385 
L 266.569644 252.415385 
L 267.100195 252.415385 
L 267.630745 252.415385 
L 268.161295 252.415385 
L 268.691845 252.415385 
L 269.222395 252.415385 
L 269.752945 252.415385 
L 270.283495 252.415385 
L 270.814046 252.415385 
L 271.344596 252.415385 
L 271.875146 252.415385 
L 272.405696 252.415385 
L 272.936246 252.415385 
L 273.466796 252.415385 
L 273.997347 252.415385 
L 274.527897 252.415385 
L 275.058447 252.415385 
L 275.588997 252.415385 
L 276.119547 252.415385 
L 276.650097 252.415385 
L 277.180647 252.415385 
L 277.711198 252.415385 
L 278.241748 252.415385 
L 278.772298 252.415385 
L 279.302848 252.415385 
L 279.833398 252.415385 
L 280.363948 252.415385 
L 280.894498 252.415385 
L 281.425049 252.415385 
L 281.955599 252.415385 
L 282.486149 252.415385 
L 283.016699 252.415385 
L 283.547249 252.415385 
L 284.077799 252.415385 
L 284.60835 252.415385 
L 285.1389 252.415385 
L 285.66945 252.415385 
L 286.2 252.415385 
z
" clip-path="url(#pe44fdb60a9)" style="fill: #b983ff; opacity: 0.5"/>
   </g>
   <g id="matplotlib.axis_1">
    <g id="xtick_1"/>
    <g id="xtick_2"/>
    <g id="xtick_3"/>
    <g id="xtick_4"/>
    <g id="xtick_5"/>
    <g id="xtick_6"/>
    <g id="xtick_7"/>
   </g>
   <g id="matplotlib.axis_2">
    <g id="ytick_1"/>
    <g id="ytick_2"/>
    <g id="ytick_3"/>
    <g id="ytick_4"/>
    <g id="ytick_5"/>
    <g id="ytick_6"/>
   </g>
  </g>
 </g>
 <defs>
  <clipPath id="pe44fdb60a9">
   <rect x="7.2" y="7.2" width="279" height="277.2"/>
  </clipPath>
 </defs>
</svg>
