<?xml version="1.0" encoding="utf-8" standalone="no"?>
<!DOCTYPE svg PUBLIC "-//W3C//DTD SVG 1.1//EN"
  "http://www.w3.org/Graphics/SVG/1.1/DTD/svg11.dtd">
<svg xmlns:xlink="http://www.w3.org/1999/xlink" width="940.987229pt" height="280.512pt" viewBox="0 0 940.987229 280.512" xmlns="http://www.w3.org/2000/svg" version="1.1">
 <metadata>
  <rdf:RDF xmlns:dc="http://purl.org/dc/elements/1.1/" xmlns:cc="http://creativecommons.org/ns#" xmlns:rdf="http://www.w3.org/1999/02/22-rdf-syntax-ns#">
   <cc:Work>
    <dc:type rdf:resource="http://purl.org/dc/dcmitype/StillImage"/>
    <dc:date>2024-06-24T23:15:59.791491</dc:date>
    <dc:format>image/svg+xml</dc:format>
    <dc:creator>
     <cc:Agent>
      <dc:title>Matplotlib v3.9.0, https://matplotlib.org/</dc:title>
     </cc:Agent>
    </dc:creator>
   </cc:Work>
  </rdf:RDF>
 </metadata>
 <defs>
  <style type="text/css">*{stroke-linejoin: round; stroke-linecap: butt}</style>
 </defs>
 <g id="figure_1">
  <g id="patch_1">
   <path d="M 0 280.512 
L 940.987229 280.512 
L 940.987229 0 
L 0 0 
L 0 280.512 
z
" style="fill: none"/>
  </g>
  <g id="axes_1">
   <g id="patch_2">
    <path d="M 7.2 273.312 
L 364.32 273.312 
L 364.32 7.2 
L 7.2 7.2 
L 7.2 273.312 
z
" style="fill: none"/>
   </g>
   <g id="patch_3">
    <path d="M 23.432727 251.441243 
L 24.050095 251.441243 
L 24.667462 251.441243 
L 25.28483 251.441243 
L 25.902197 251.441243 
L 26.519565 251.441243 
L 27.136932 251.441243 
L 27.754299 251.441243 
L 28.371667 251.441243 
L 28.989034 251.441243 
L 29.606402 251.441243 
L 30.223769 251.441243 
L 30.841137 251.441243 
L 31.458504 251.441243 
L 32.075872 251.441243 
L 32.693239 251.441243 
L 33.310606 251.441243 
L 33.927974 251.441243 
L 34.545341 251.441243 
L 35.162709 251.441243 
L 35.780076 251.441243 
L 36.397444 251.441243 
L 37.014811 251.441243 
L 37.632179 251.441243 
L 38.249546 251.441243 
L 38.866913 251.441243 
L 39.484281 251.441243 
L 40.101648 251.441243 
L 40.719016 251.441243 
L 41.336383 251.441243 
L 41.953751 251.441243 
L 42.571118 251.441243 
L 43.188486 251.441243 
L 43.805853 251.441243 
L 44.423221 251.441243 
L 45.040588 251.441243 
L 45.657955 251.441243 
L 46.275323 251.441243 
L 46.89269 251.441243 
L 47.510058 251.441243 
L 48.127425 251.441243 
L 48.744793 251.441243 
L 49.36216 251.441243 
L 49.979528 251.441243 
L 50.596895 251.441243 
L 51.214262 251.441243 
L 51.83163 251.441243 
L 52.448997 251.441243 
L 53.066365 251.441243 
L 53.683732 251.441243 
L 54.3011 250.772463 
L 54.918467 249.857294 
L 55.535835 248.892775 
L 56.153202 247.877565 
L 56.77057 246.810401 
L 57.387937 245.690102 
L 58.005304 244.515579 
L 58.622672 243.285851 
L 59.240039 242.000054 
L 59.857407 240.657448 
L 60.474774 239.257436 
L 61.092142 237.799568 
L 61.709509 236.283556 
L 62.326877 234.709283 
L 62.944244 233.076812 
L 63.561611 231.386402 
L 64.178979 229.63851 
L 64.796346 227.833803 
L 65.413714 225.973169 
L 66.031081 224.05772 
L 66.648449 222.0888 
L 67.265816 220.067993 
L 67.883184 217.997124 
L 68.500551 215.878267 
L 69.117918 213.713743 
L 69.735286 211.506122 
L 70.352653 209.258225 
L 70.970021 206.973122 
L 71.587388 204.654125 
L 72.204756 202.30479 
L 72.822123 199.928905 
L 73.439491 197.530486 
L 74.056858 195.113765 
L 74.674226 192.683183 
L 75.291593 190.243374 
L 75.90896 187.799155 
L 76.526328 185.355507 
L 77.143695 182.917561 
L 77.761063 180.490577 
L 78.37843 178.079929 
L 78.995798 175.691081 
L 79.613165 173.329565 
L 80.230533 171.000962 
L 80.8479 168.710871 
L 81.465267 166.464894 
L 82.082635 164.268603 
L 82.700002 162.127518 
L 83.31737 160.047081 
L 83.934737 158.032626 
L 84.552105 156.089361 
L 85.169472 154.222331 
L 85.78684 152.436402 
L 86.404207 150.736229 
L 87.021575 149.126236 
L 87.638942 147.610587 
L 88.256309 146.193168 
L 88.873677 144.877562 
L 89.491044 143.667031 
L 90.108412 142.564494 
L 90.725779 141.572512 
L 91.343147 140.69327 
L 91.960514 139.928564 
L 92.577882 139.27979 
L 93.195249 138.747932 
L 93.812616 138.333556 
L 94.429984 138.036801 
L 95.047351 137.857376 
L 95.664719 137.794564 
L 96.282086 137.847212 
L 96.899454 138.013745 
L 97.516821 138.292163 
L 98.134189 138.680053 
L 98.751556 139.174595 
L 99.368923 139.772576 
L 99.986291 140.470402 
L 100.603658 141.264114 
L 101.221026 142.149404 
L 101.838393 143.121634 
L 102.455761 144.175856 
L 103.073128 145.306836 
L 103.690496 146.509072 
L 104.307863 147.776821 
L 104.925231 149.104126 
L 105.542598 150.484835 
L 106.159965 151.912633 
L 106.777333 153.381067 
L 107.3947 154.883571 
L 108.012068 156.413495 
L 108.629435 157.964131 
L 109.246803 159.52874 
L 109.86417 161.100579 
L 110.481538 162.672924 
L 111.098905 164.239098 
L 111.716272 165.792495 
L 112.33364 167.326602 
L 112.951007 168.835022 
L 113.568375 170.311497 
L 114.185742 171.749924 
L 114.80311 173.144381 
L 115.420477 174.489134 
L 116.037845 175.778666 
L 116.655212 177.007678 
L 117.27258 178.171115 
L 117.889947 179.264169 
L 118.507314 180.282292 
L 119.124682 181.221207 
L 119.742049 182.076912 
L 120.359417 182.845689 
L 120.976784 183.524104 
L 121.594152 184.109016 
L 122.211519 184.597577 
L 122.828887 184.987229 
L 123.446254 185.275708 
L 124.063621 185.461041 
L 124.680989 185.541543 
L 125.298356 185.515814 
L 125.915724 185.382733 
L 126.533091 185.141455 
L 127.150459 184.791405 
L 127.767826 184.332269 
L 128.385194 183.763987 
L 129.002561 183.08675 
L 129.619928 182.300987 
L 130.237296 181.407357 
L 130.854663 180.406743 
L 131.472031 179.300244 
L 132.089398 178.08916 
L 132.706766 176.774991 
L 133.324133 175.359422 
L 133.941501 173.844318 
L 134.558868 172.231711 
L 135.176236 170.523797 
L 135.793603 168.722923 
L 136.41097 166.831581 
L 137.028338 164.852397 
L 137.645705 162.788129 
L 138.263073 160.641651 
L 138.88044 158.415955 
L 139.497808 156.114137 
L 140.115175 153.739393 
L 140.732543 151.295011 
L 141.34991 148.78437 
L 141.967277 146.210925 
L 142.584645 143.578209 
L 143.202012 140.889825 
L 143.81938 138.14944 
L 144.436747 135.360779 
L 145.054115 132.527626 
L 145.671482 129.65381 
L 146.28885 126.743209 
L 146.906217 123.799739 
L 147.523585 120.827355 
L 148.140952 117.830044 
L 148.758319 114.81182 
L 149.375687 111.776722 
L 149.993054 108.728807 
L 150.610422 105.672151 
L 151.227789 102.610838 
L 151.845157 99.548961 
L 152.462524 96.490616 
L 153.079892 93.439897 
L 153.697259 90.400894 
L 154.314626 87.377684 
L 154.931994 84.374331 
L 155.549361 81.394882 
L 156.166729 78.443355 
L 156.784096 75.523744 
L 157.401464 72.640007 
L 158.018831 69.796064 
L 158.636199 66.995791 
L 159.253566 64.243015 
L 159.870933 61.541511 
L 160.488301 58.894992 
L 161.105668 56.307109 
L 161.723036 53.781442 
L 162.340403 51.321496 
L 162.957771 48.930696 
L 163.575138 46.612381 
L 164.192506 44.369799 
L 164.809873 42.206102 
L 165.427241 40.12434 
L 166.044608 38.127457 
L 166.661975 36.218286 
L 167.279343 34.399541 
L 167.89671 32.673818 
L 168.514078 31.043584 
L 169.131445 29.511179 
L 169.748813 28.078807 
L 170.36618 26.748533 
L 170.983548 25.522281 
L 171.600915 24.401827 
L 172.218282 23.3888 
L 172.83565 22.484676 
L 173.453017 21.690777 
L 174.070385 21.008265 
L 174.687752 20.438146 
L 175.30512 19.981262 
L 175.922487 19.638293 
L 176.539855 19.409755 
L 177.157222 19.296 
L 177.774589 19.297213 
L 178.391957 19.413416 
L 179.009324 19.644464 
L 179.626692 19.990047 
L 180.244059 20.449695 
L 180.861427 21.022771 
L 181.478794 21.708481 
L 182.096162 22.505872 
L 182.713529 23.413834 
L 183.330897 24.431103 
L 183.948264 25.556268 
L 184.565631 26.787766 
L 185.182999 28.123896 
L 185.800366 29.562813 
L 186.417734 31.102541 
L 187.035101 32.74097 
L 187.652469 34.475867 
L 188.269836 36.304878 
L 188.887204 38.225531 
L 189.504571 40.235248 
L 190.121938 42.331342 
L 190.739306 44.511031 
L 191.356673 46.771439 
L 191.974041 49.109604 
L 192.591408 51.522481 
L 193.208776 54.006953 
L 193.826143 56.559833 
L 194.443511 59.177874 
L 195.060878 61.85777 
L 195.678246 64.596168 
L 196.295613 67.38967 
L 196.91298 70.234837 
L 197.530348 73.128202 
L 198.147715 76.066269 
L 198.765083 79.045521 
L 199.38245 82.062422 
L 199.999818 85.113426 
L 200.617185 88.194981 
L 201.234553 91.303528 
L 201.85192 94.435509 
L 202.469287 97.587369 
L 203.086655 100.755559 
L 203.704022 103.936536 
L 204.32139 107.126767 
L 204.938757 110.322728 
L 205.556125 113.520907 
L 206.173492 116.717797 
L 206.79086 119.909903 
L 207.408227 123.093736 
L 208.025594 126.265808 
L 208.642962 129.422633 
L 209.260329 132.560721 
L 209.877697 135.676573 
L 210.495064 138.766675 
L 211.112432 141.827491 
L 211.729799 144.855458 
L 212.347167 147.846978 
L 212.964534 150.798407 
L 213.581902 153.706048 
L 214.199269 156.566144 
L 214.816636 159.374863 
L 215.434004 162.128296 
L 216.051371 164.822439 
L 216.668739 167.453189 
L 217.286106 170.016334 
L 217.903474 172.507543 
L 218.520841 174.922358 
L 219.138209 177.256188 
L 219.755576 179.504305 
L 220.372943 181.661836 
L 220.990311 183.723764 
L 221.607678 185.684924 
L 222.225046 187.540011 
L 222.842413 189.283578 
L 223.459781 190.91005 
L 224.077148 192.41373 
L 224.694516 193.788816 
L 225.311883 195.02942 
L 225.929251 196.129588 
L 226.546618 197.083328 
L 227.163985 197.884642 
L 227.781353 198.527557 
L 228.39872 199.006172 
L 229.016088 199.314693 
L 229.633455 199.447491 
L 230.250823 199.399148 
L 230.86819 199.16452 
L 231.485558 198.738791 
L 232.102925 198.117547 
L 232.720292 197.296833 
L 233.33766 196.273229 
L 233.955027 195.043922 
L 234.572395 193.606776 
L 235.189762 191.960406 
L 235.80713 190.104249 
L 236.424497 188.038639 
L 237.041865 185.764871 
L 237.659232 183.285269 
L 238.276599 180.603243 
L 238.893967 177.723349 
L 239.511334 174.65133 
L 240.128702 171.394165 
L 240.746069 167.960089 
L 241.363437 164.358627 
L 241.980804 160.600595 
L 242.598172 156.698103 
L 243.215539 152.664543 
L 243.832907 148.514561 
L 244.450274 144.264019 
L 245.067641 139.929939 
L 245.685009 135.530443 
L 246.302376 131.084665 
L 246.919744 126.61266 
L 247.537111 122.135298 
L 248.154479 117.674144 
L 248.771846 113.251325 
L 249.389214 108.889392 
L 250.006581 104.611162 
L 250.623948 100.439568 
L 251.241316 96.397486 
L 251.858683 92.507568 
L 252.476051 88.792066 
L 253.093418 85.272661 
L 253.710786 81.970284 
L 254.328153 78.904949 
L 254.945521 76.095586 
L 255.562888 73.559878 
L 256.180256 71.314116 
L 256.797623 69.373052 
L 257.41499 67.749777 
L 258.032358 66.455605 
L 258.649725 65.499971 
L 259.267093 64.890357 
L 259.88446 64.63222 
L 260.501828 64.728951 
L 261.119195 65.181849 
L 261.736563 65.990111 
L 262.35393 67.150849 
L 262.971297 68.659119 
L 263.588665 70.507976 
L 264.206032 72.688539 
L 264.8234 75.190083 
L 265.440767 78.000139 
L 266.058135 81.104614 
L 266.675502 84.487923 
L 267.29287 88.133134 
L 267.910237 92.022116 
L 268.527604 96.135709 
L 269.144972 100.453887 
L 269.762339 104.95593 
L 270.379707 109.620599 
L 270.997074 114.426312 
L 271.614442 119.351314 
L 272.231809 124.373846 
L 272.849177 129.472309 
L 273.466544 134.625422 
L 274.083912 139.812366 
L 274.701279 145.012925 
L 275.318646 150.207611 
L 275.936014 155.377778 
L 276.553381 160.505728 
L 277.170749 165.574795 
L 277.788116 170.569422 
L 278.405484 175.475223 
L 279.022851 180.279031 
L 279.640219 184.968927 
L 280.257586 189.534265 
L 280.874953 193.965679 
L 281.492321 198.255076 
L 282.109688 202.39562 
L 282.727056 206.38171 
L 283.344423 210.208937 
L 283.961791 213.874043 
L 284.579158 217.37487 
L 285.196526 220.710296 
L 285.813893 223.880176 
L 286.431261 226.88527 
L 287.048628 229.727173 
L 287.665995 232.408239 
L 288.283363 234.931507 
L 288.90073 237.300626 
L 289.518098 239.519779 
L 290.135465 241.593607 
L 290.752833 243.527143 
L 291.3702 245.325734 
L 291.987568 246.994985 
L 292.604935 248.540686 
L 293.222302 249.968762 
L 293.83967 251.285213 
L 294.457037 251.441243 
L 295.074405 251.441243 
L 295.691772 251.441243 
L 296.30914 251.441243 
L 296.926507 251.441243 
L 297.543875 251.441243 
L 298.161242 251.441243 
L 298.778609 251.441243 
L 299.395977 251.441243 
L 300.013344 251.441243 
L 300.630712 251.441243 
L 301.248079 251.441243 
L 301.865447 251.441243 
L 302.482814 251.441243 
L 303.100182 251.441243 
L 303.717549 251.441243 
L 304.334917 251.441243 
L 304.952284 251.441243 
L 305.569651 251.441243 
L 306.187019 251.441243 
L 306.804386 251.441243 
L 307.421754 251.441243 
L 308.039121 251.441243 
L 308.656489 251.441243 
L 309.273856 251.441243 
L 309.891224 251.441243 
L 310.508591 251.441243 
L 311.125958 251.441243 
L 311.743326 251.441243 
L 312.360693 251.441243 
L 312.978061 251.441243 
L 313.595428 251.441243 
L 314.212796 251.441243 
L 314.830163 251.441243 
L 315.447531 251.441243 
L 316.064898 251.441243 
L 316.682265 251.441243 
L 317.299633 251.441243 
L 317.917 251.441243 
L 318.534368 251.441243 
L 319.151735 251.441243 
L 319.769103 251.441243 
L 320.38647 251.441243 
L 321.003838 251.441243 
L 321.621205 251.441243 
L 322.238573 251.441243 
L 322.85594 251.441243 
L 323.473307 251.441243 
L 324.090675 251.441243 
L 324.708042 251.441243 
L 325.32541 251.441243 
L 325.942777 251.441243 
L 326.560145 251.441243 
L 327.177512 251.441243 
L 327.79488 251.441243 
L 328.412247 251.441243 
L 329.029614 251.441243 
L 329.646982 251.441243 
L 330.264349 251.441243 
L 330.881717 251.441243 
L 331.499084 251.441243 
z
" clip-path="url(#p7ad919a751)" style="fill: #ecb365; opacity: 0.4"/>
   </g>
   <g id="patch_4">
    <path d="M 40.020916 261.216 
L 40.638283 261.216 
L 41.255651 261.216 
L 41.873018 261.216 
L 42.490386 261.216 
L 43.107753 261.216 
L 43.72512 261.216 
L 44.342488 261.216 
L 44.959855 261.216 
L 45.577223 261.216 
L 46.19459 261.216 
L 46.811958 261.216 
L 47.429325 261.216 
L 48.046693 261.216 
L 48.66406 261.216 
L 49.281427 261.216 
L 49.898795 261.216 
L 50.516162 261.216 
L 51.13353 261.216 
L 51.750897 261.216 
L 52.368265 261.216 
L 52.985632 261.216 
L 53.603 261.216 
L 54.220367 261.216 
L 54.837735 261.216 
L 55.455102 261.216 
L 56.072469 261.216 
L 56.689837 261.216 
L 57.307204 261.216 
L 57.924572 261.216 
L 58.541939 261.216 
L 59.159307 261.216 
L 59.776674 261.216 
L 60.394042 261.216 
L 61.011409 261.216 
L 61.628776 261.216 
L 62.246144 261.216 
L 62.863511 261.216 
L 63.480879 261.216 
L 64.098246 261.216 
L 64.715614 261.216 
L 65.332981 261.216 
L 65.950349 261.216 
L 66.567716 261.216 
L 67.185083 261.216 
L 67.802451 261.216 
L 68.419818 261.216 
L 69.037186 261.216 
L 69.654553 261.216 
L 70.271921 261.216 
L 70.889288 261.216 
L 71.506656 261.216 
L 72.124023 261.216 
L 72.741391 261.216 
L 73.358758 261.216 
L 73.976125 261.216 
L 74.593493 261.216 
L 75.21086 261.216 
L 75.828228 261.216 
L 76.445595 261.216 
L 77.062963 261.216 
L 77.68033 261.216 
L 78.297698 261.216 
L 78.915065 261.216 
L 79.532432 261.216 
L 80.1498 261.216 
L 80.767167 261.216 
L 81.384535 261.216 
L 82.001902 261.216 
L 82.61927 261.216 
L 83.236637 261.216 
L 83.854005 261.216 
L 84.471372 261.216 
L 85.088739 261.216 
L 85.706107 261.216 
L 86.323474 261.216 
L 86.940842 261.216 
L 87.558209 261.216 
L 88.175577 261.216 
L 88.792944 261.216 
L 89.410312 261.216 
L 90.027679 261.216 
L 90.645047 261.216 
L 91.262414 261.216 
L 91.879781 261.216 
L 92.497149 261.216 
L 93.114516 261.216 
L 93.731884 261.216 
L 94.349251 261.216 
L 94.966619 261.216 
L 95.583986 261.216 
L 96.201354 261.216 
L 96.818721 261.216 
L 97.436088 261.216 
L 98.053456 261.216 
L 98.670823 261.216 
L 99.288191 261.216 
L 99.905558 261.216 
L 100.522926 261.216 
L 101.140293 261.216 
L 101.757661 261.216 
L 102.375028 261.216 
L 102.992396 261.216 
L 103.609763 261.216 
L 104.22713 261.216 
L 104.844498 261.216 
L 105.461865 261.216 
L 106.079233 261.216 
L 106.6966 261.216 
L 107.313968 261.216 
L 107.931335 261.216 
L 108.548703 261.216 
L 109.16607 261.216 
L 109.783437 261.216 
L 110.400805 261.216 
L 111.018172 261.216 
L 111.63554 261.216 
L 112.252907 261.216 
L 112.870275 261.216 
L 113.487642 261.216 
L 114.10501 261.216 
L 114.722377 261.216 
L 115.339744 261.216 
L 115.957112 261.216 
L 116.574479 261.216 
L 117.191847 261.216 
L 117.809214 261.216 
L 118.426582 261.216 
L 119.043949 261.216 
L 119.661317 261.216 
L 120.278684 261.216 
L 120.896052 261.216 
L 121.513419 261.216 
L 122.130786 261.216 
L 122.748154 261.216 
L 123.365521 261.216 
L 123.982889 261.216 
L 124.600256 261.216 
L 125.217624 261.216 
L 125.834991 261.216 
L 126.452359 261.216 
L 127.069726 261.216 
L 127.687093 261.216 
L 128.304461 261.216 
L 128.921828 261.216 
L 129.539196 261.216 
L 130.156563 261.216 
L 130.773931 261.216 
L 131.391298 261.216 
L 132.008666 261.216 
L 132.626033 261.216 
L 133.243401 261.216 
L 133.860768 261.216 
L 134.478135 261.216 
L 135.095503 261.216 
L 135.71287 261.216 
L 136.330238 261.216 
L 136.947605 261.216 
L 137.564973 261.216 
L 138.18234 261.216 
L 138.799708 261.216 
L 139.417075 261.216 
L 140.034442 261.216 
L 140.65181 261.216 
L 141.269177 261.216 
L 141.886545 261.216 
L 142.503912 261.216 
L 143.12128 261.216 
L 143.738647 261.216 
L 144.356015 261.216 
L 144.973382 261.216 
L 145.590749 261.216 
L 146.208117 261.216 
L 146.825484 261.216 
L 147.442852 261.216 
L 148.060219 261.216 
L 148.677587 261.216 
L 149.294954 261.216 
L 149.912322 261.216 
L 150.529689 261.216 
L 151.147057 261.216 
L 151.764424 261.216 
L 152.381791 261.216 
L 152.999159 261.216 
L 153.616526 261.216 
L 154.233894 261.216 
L 154.851261 261.216 
L 155.468629 261.216 
L 156.085996 261.216 
L 156.703364 261.216 
L 157.320731 261.216 
L 157.938098 261.216 
L 158.555466 261.216 
L 159.172833 261.216 
L 159.790201 261.216 
L 160.407568 261.216 
L 161.024936 261.216 
L 161.642303 261.216 
L 162.259671 261.216 
L 162.877038 261.216 
L 163.494406 261.216 
L 164.111773 261.216 
L 164.72914 261.216 
L 165.346508 261.216 
L 165.963875 261.216 
L 166.581243 261.216 
L 167.19861 261.216 
L 167.815978 261.216 
L 168.433345 261.216 
L 169.050713 261.216 
L 169.66808 261.216 
L 170.285447 261.216 
L 170.902815 261.216 
L 171.520182 261.216 
L 172.13755 261.216 
L 172.754917 261.216 
L 173.372285 261.216 
L 173.989652 261.216 
L 174.60702 261.216 
L 175.224387 261.216 
L 175.841754 261.216 
L 176.459122 261.216 
L 177.076489 261.216 
L 177.693857 261.216 
L 178.311224 261.216 
L 178.928592 261.216 
L 179.545959 261.216 
L 180.163327 261.216 
L 180.780694 261.216 
L 181.398062 261.216 
L 182.015429 261.216 
L 182.632796 261.216 
L 183.250164 261.216 
L 183.867531 261.216 
L 184.484899 261.216 
L 185.102266 261.216 
L 185.719634 261.216 
L 186.337001 261.216 
L 186.954369 261.216 
L 187.571736 261.216 
L 188.189103 261.216 
L 188.806471 261.216 
L 189.423838 261.216 
L 190.041206 261.216 
L 190.658573 261.216 
L 191.275941 261.216 
L 191.893308 261.216 
L 192.510676 261.216 
L 193.128043 261.216 
L 193.745411 261.216 
L 194.362778 261.216 
L 194.980145 261.216 
L 195.597513 261.216 
L 196.21488 261.216 
L 196.832248 261.216 
L 197.449615 261.216 
L 198.066983 261.216 
L 198.68435 261.216 
L 199.301718 261.216 
L 199.919085 261.216 
L 200.536452 261.216 
L 201.15382 261.216 
L 201.771187 261.216 
L 202.388555 261.216 
L 203.005922 261.216 
L 203.62329 261.216 
L 204.240657 261.216 
L 204.858025 261.216 
L 205.475392 261.216 
L 206.092759 261.216 
L 206.710127 261.216 
L 207.327494 261.216 
L 207.944862 261.216 
L 208.562229 261.216 
L 209.179597 261.216 
L 209.796964 261.216 
L 210.414332 261.216 
L 211.031699 261.216 
L 211.649067 261.216 
L 212.266434 261.216 
L 212.883801 261.216 
L 213.501169 261.216 
L 214.118536 261.216 
L 214.735904 261.216 
L 215.353271 261.216 
L 215.970639 261.216 
L 216.588006 261.216 
L 217.205374 261.216 
L 217.822741 261.216 
L 218.440108 261.216 
L 219.057476 261.216 
L 219.674843 261.216 
L 220.292211 261.216 
L 220.909578 261.216 
L 221.526946 261.216 
L 222.144313 261.216 
L 222.761681 261.216 
L 223.379048 261.216 
L 223.996415 261.216 
L 224.613783 261.216 
L 225.23115 261.216 
L 225.848518 261.216 
L 226.465885 261.216 
L 227.083253 261.216 
L 227.70062 261.216 
L 228.317988 261.216 
L 228.935355 261.216 
L 229.552723 261.216 
L 230.17009 261.216 
L 230.787457 261.216 
L 231.404825 261.216 
L 232.022192 261.216 
L 232.63956 261.216 
L 233.256927 261.216 
L 233.874295 261.216 
L 234.491662 261.216 
L 235.10903 261.216 
L 235.726397 261.216 
L 236.343764 261.216 
L 236.961132 261.216 
L 237.578499 261.216 
L 238.195867 261.216 
L 238.813234 261.216 
L 239.430602 261.216 
L 240.047969 261.216 
L 240.665337 261.216 
L 241.282704 261.216 
L 241.900072 261.216 
L 242.517439 261.216 
L 243.134806 261.216 
L 243.752174 260.724414 
L 244.369541 259.379621 
L 244.986909 257.921816 
L 245.604276 256.345052 
L 246.221644 254.64348 
L 246.839011 252.811402 
L 247.456379 250.843331 
L 248.073746 248.734059 
L 248.691113 246.478717 
L 249.308481 244.072852 
L 249.925848 241.512498 
L 250.543216 238.794248 
L 251.160583 235.915333 
L 251.777951 232.873695 
L 252.395318 229.668066 
L 253.012686 226.298038 
L 253.630053 222.764136 
L 254.24742 219.067885 
L 254.864788 215.211875 
L 255.482155 211.199816 
L 256.099523 207.036588 
L 256.71689 202.728287 
L 257.334258 198.282256 
L 257.951625 193.707109 
L 258.568993 189.012746 
L 259.18636 184.210352 
L 259.803728 179.312386 
L 260.421095 174.33256 
L 261.038462 169.285799 
L 261.65583 164.188189 
L 262.273197 159.056915 
L 262.890565 153.910179 
L 263.507932 148.767109 
L 264.1253 143.647655 
L 264.742667 138.572468 
L 265.360035 133.562771 
L 265.977402 128.640219 
L 266.594769 123.826749 
L 267.212137 119.144421 
L 267.829504 114.615256 
L 268.446872 110.261059 
L 269.064239 106.103257 
L 269.681607 102.162716 
L 270.298974 98.459571 
L 270.916342 95.013055 
L 271.533709 91.841336 
L 272.151077 88.961351 
L 272.768444 86.388663 
L 273.385811 84.137317 
L 274.003179 82.219712 
L 274.620546 80.64649 
L 275.237914 79.426435 
L 275.855281 78.566392 
L 276.472649 78.071204 
L 277.090016 77.943667 
L 277.707384 78.184501 
L 278.324751 78.792345 
L 278.942118 79.763771 
L 279.559486 81.093313 
L 280.176853 82.773523 
L 280.794221 84.795035 
L 281.411588 87.146654 
L 282.028956 89.815464 
L 282.646323 92.786938 
L 283.263691 96.045074 
L 283.881058 99.57254 
L 284.498425 103.350824 
L 285.115793 107.360397 
L 285.73316 111.58088 
L 286.350528 115.991216 
L 286.967895 120.569844 
L 287.585263 125.294873 
L 288.20263 130.144254 
L 288.819998 135.095946 
L 289.437365 140.128084 
L 290.054733 145.219128 
L 290.6721 150.348018 
L 291.289467 155.494304 
L 291.906835 160.63828 
L 292.524202 165.761089 
L 293.14157 170.844834 
L 293.758937 175.87266 
L 294.376305 180.828832 
L 294.993672 185.698794 
L 295.61104 190.469216 
L 296.228407 195.128029 
L 296.845774 199.664442 
L 297.463142 204.068953 
L 298.080509 208.33334 
L 298.697877 212.450646 
L 299.315244 216.415155 
L 299.932612 220.222351 
L 300.549979 223.868873 
L 301.167347 227.352467 
L 301.784714 230.671922 
L 302.402082 233.827008 
L 303.019449 236.818403 
L 303.636816 239.64763 
L 304.254184 242.31697 
L 304.871551 244.829399 
L 305.488919 247.188502 
L 306.106286 249.398405 
L 306.723654 251.463695 
L 307.341021 253.389352 
L 307.958389 255.180679 
L 308.575756 256.843234 
L 309.193123 258.382767 
L 309.810491 259.805163 
L 310.427858 261.116386 
L 311.045226 261.216 
L 311.662593 261.216 
L 312.279961 261.216 
L 312.897328 261.216 
L 313.514696 261.216 
L 314.132063 261.216 
L 314.74943 261.216 
L 315.366798 261.216 
L 315.984165 261.216 
L 316.601533 261.216 
L 317.2189 261.216 
L 317.836268 261.216 
L 318.453635 261.216 
L 319.071003 261.216 
L 319.68837 261.216 
L 320.305738 261.216 
L 320.923105 261.216 
L 321.540472 261.216 
L 322.15784 261.216 
L 322.775207 261.216 
L 323.392575 261.216 
L 324.009942 261.216 
L 324.62731 261.216 
L 325.244677 261.216 
L 325.862045 261.216 
L 326.479412 261.216 
L 327.096779 261.216 
L 327.714147 261.216 
L 328.331514 261.216 
L 328.948882 261.216 
L 329.566249 261.216 
L 330.183617 261.216 
L 330.800984 261.216 
L 331.418352 261.216 
L 332.035719 261.216 
L 332.653087 261.216 
L 333.270454 261.216 
L 333.887821 261.216 
L 334.505189 261.216 
L 335.122556 261.216 
L 335.739924 261.216 
L 336.357291 261.216 
L 336.974659 261.216 
L 337.592026 261.216 
L 338.209394 261.216 
L 338.826761 261.216 
L 339.444128 261.216 
L 340.061496 261.216 
L 340.678863 261.216 
L 341.296231 261.216 
L 341.913598 261.216 
L 342.530966 261.216 
L 343.148333 261.216 
L 343.765701 261.216 
L 344.383068 261.216 
L 345.000435 261.216 
L 345.617803 261.216 
L 346.23517 261.216 
L 346.852538 261.216 
L 347.469905 261.216 
L 348.087273 261.216 
z
" clip-path="url(#p7ad919a751)" style="fill: #00a9ff; opacity: 0.5"/>
   </g>
   <g id="patch_5">
    <path d="M 40.020916 261.216 
L 40.638283 261.216 
L 41.255651 261.216 
L 41.873018 261.216 
L 42.490386 261.216 
L 43.107753 261.216 
L 43.72512 261.216 
L 44.342488 261.216 
L 44.959855 261.216 
L 45.577223 261.216 
L 46.19459 261.216 
L 46.811958 261.216 
L 47.429325 261.216 
L 48.046693 261.216 
L 48.66406 261.216 
L 49.281427 261.216 
L 49.898795 261.216 
L 50.516162 261.216 
L 51.13353 261.216 
L 51.750897 261.216 
L 52.368265 261.216 
L 52.985632 261.216 
L 53.603 261.216 
L 54.220367 261.216 
L 54.837735 261.216 
L 55.455102 261.216 
L 56.072469 261.216 
L 56.689837 261.216 
L 57.307204 261.216 
L 57.924572 261.216 
L 58.541939 261.216 
L 59.159307 261.216 
L 59.776674 261.216 
L 60.394042 261.216 
L 61.011409 261.216 
L 61.628776 261.216 
L 62.246144 261.216 
L 62.863511 261.216 
L 63.480879 261.216 
L 64.098246 261.216 
L 64.715614 261.216 
L 65.332981 261.216 
L 65.950349 261.216 
L 66.567716 261.216 
L 67.185083 261.216 
L 67.802451 261.216 
L 68.419818 261.216 
L 69.037186 261.216 
L 69.654553 261.216 
L 70.271921 261.216 
L 70.889288 261.216 
L 71.506656 261.216 
L 72.124023 261.216 
L 72.741391 261.216 
L 73.358758 261.216 
L 73.976125 261.216 
L 74.593493 261.216 
L 75.21086 261.216 
L 75.828228 261.216 
L 76.445595 261.216 
L 77.062963 261.216 
L 77.68033 261.216 
L 78.297698 261.216 
L 78.915065 261.216 
L 79.532432 261.216 
L 80.1498 261.216 
L 80.767167 261.216 
L 81.384535 261.216 
L 82.001902 261.216 
L 82.61927 261.216 
L 83.236637 261.216 
L 83.854005 261.216 
L 84.471372 261.216 
L 85.088739 261.216 
L 85.706107 261.216 
L 86.323474 261.216 
L 86.940842 261.216 
L 87.558209 261.216 
L 88.175577 261.216 
L 88.792944 261.216 
L 89.410312 261.216 
L 90.027679 261.216 
L 90.645047 261.216 
L 91.262414 261.216 
L 91.879781 261.216 
L 92.497149 261.216 
L 93.114516 261.216 
L 93.731884 261.216 
L 94.349251 261.216 
L 94.966619 261.216 
L 95.583986 261.216 
L 96.201354 261.216 
L 96.818721 261.216 
L 97.436088 261.216 
L 98.053456 261.216 
L 98.670823 261.216 
L 99.288191 261.216 
L 99.905558 261.216 
L 100.522926 261.216 
L 101.140293 261.216 
L 101.757661 261.216 
L 102.375028 261.216 
L 102.992396 261.216 
L 103.609763 261.216 
L 104.22713 261.216 
L 104.844498 261.216 
L 105.461865 261.216 
L 106.079233 261.216 
L 106.6966 261.216 
L 107.313968 261.216 
L 107.931335 261.216 
L 108.548703 261.216 
L 109.16607 261.216 
L 109.783437 261.216 
L 110.400805 261.216 
L 111.018172 261.216 
L 111.63554 261.216 
L 112.252907 261.216 
L 112.870275 261.216 
L 113.487642 261.216 
L 114.10501 261.216 
L 114.722377 261.216 
L 115.339744 261.216 
L 115.957112 261.216 
L 116.574479 261.216 
L 117.191847 261.216 
L 117.809214 261.216 
L 118.426582 261.216 
L 119.043949 261.216 
L 119.661317 261.216 
L 120.278684 261.216 
L 120.896052 261.216 
L 121.513419 261.216 
L 122.130786 261.160415 
L 122.748154 260.494093 
L 123.365521 259.798026 
L 123.982889 259.07129 
L 124.600256 258.312951 
L 125.217624 257.522076 
L 125.834991 256.697728 
L 126.452359 255.838969 
L 127.069726 254.944864 
L 127.687093 254.014481 
L 128.304461 253.046893 
L 128.921828 252.041181 
L 129.539196 250.996435 
L 130.156563 249.911759 
L 130.773931 248.786269 
L 131.391298 247.619098 
L 132.008666 246.409398 
L 132.626033 245.156343 
L 133.243401 243.859131 
L 133.860768 242.516988 
L 134.478135 241.129167 
L 135.095503 239.694957 
L 135.71287 238.213678 
L 136.330238 236.684691 
L 136.947605 235.107397 
L 137.564973 233.481242 
L 138.18234 231.805717 
L 138.799708 230.080364 
L 139.417075 228.304777 
L 140.034442 226.478607 
L 140.65181 224.601563 
L 141.269177 222.673416 
L 141.886545 220.694 
L 142.503912 218.663219 
L 143.12128 216.581045 
L 143.738647 214.447525 
L 144.356015 212.262779 
L 144.973382 210.027007 
L 145.590749 207.740491 
L 146.208117 205.403594 
L 146.825484 203.016765 
L 147.442852 200.580541 
L 148.060219 198.09555 
L 148.677587 195.56251 
L 149.294954 192.982232 
L 149.912322 190.355623 
L 150.529689 187.683687 
L 151.147057 184.967525 
L 151.764424 182.208335 
L 152.381791 179.407417 
L 152.999159 176.56617 
L 153.616526 173.686093 
L 154.233894 170.768787 
L 154.851261 167.815952 
L 155.468629 164.829389 
L 156.085996 161.810999 
L 156.703364 158.762782 
L 157.320731 155.686834 
L 157.938098 152.585351 
L 158.555466 149.46062 
L 159.172833 146.315024 
L 159.790201 143.151035 
L 160.407568 139.971214 
L 161.024936 136.778209 
L 161.642303 133.574749 
L 162.259671 130.363643 
L 162.877038 127.147777 
L 163.494406 123.930109 
L 164.111773 120.713665 
L 164.72914 117.501535 
L 165.346508 114.296869 
L 165.963875 111.102871 
L 166.581243 107.922796 
L 167.19861 104.759944 
L 167.815978 101.617652 
L 168.433345 98.499292 
L 169.050713 95.408265 
L 169.66808 92.347992 
L 170.285447 89.32191 
L 170.902815 86.333467 
L 171.520182 83.386114 
L 172.13755 80.483295 
L 172.754917 77.62845 
L 173.372285 74.824997 
L 173.989652 72.076335 
L 174.60702 69.385828 
L 175.224387 66.756807 
L 175.841754 64.192558 
L 176.459122 61.696316 
L 177.076489 59.271258 
L 177.693857 56.9205 
L 178.311224 54.647083 
L 178.928592 52.453974 
L 179.545959 50.344055 
L 180.163327 48.320118 
L 180.780694 46.384859 
L 181.398062 44.540873 
L 182.015429 42.790645 
L 182.632796 41.136549 
L 183.250164 39.580837 
L 183.867531 38.125641 
L 184.484899 36.772961 
L 185.102266 35.524665 
L 185.719634 34.382483 
L 186.337001 33.348003 
L 186.954369 32.42267 
L 187.571736 31.607776 
L 188.189103 30.904465 
L 188.806471 30.313726 
L 189.423838 29.836389 
L 190.041206 29.473128 
L 190.658573 29.224455 
L 191.275941 29.090722 
L 191.893308 29.072117 
L 192.510676 29.168668 
L 193.128043 29.380237 
L 193.745411 29.706526 
L 194.362778 30.147073 
L 194.980145 30.701258 
L 195.597513 31.3683 
L 196.21488 32.147262 
L 196.832248 33.037049 
L 197.449615 34.036417 
L 198.066983 35.143969 
L 198.68435 36.358165 
L 199.301718 37.677318 
L 199.919085 39.099607 
L 200.536452 40.623071 
L 201.15382 42.245622 
L 201.771187 43.965046 
L 202.388555 45.779007 
L 203.005922 47.685057 
L 203.62329 49.680634 
L 204.240657 51.763075 
L 204.858025 53.929618 
L 205.475392 56.177409 
L 206.092759 58.50351 
L 206.710127 60.9049 
L 207.327494 63.378489 
L 207.944862 65.921117 
L 208.562229 68.529569 
L 209.179597 71.200573 
L 209.796964 73.930814 
L 210.414332 76.716935 
L 211.031699 79.55555 
L 211.649067 82.443244 
L 212.266434 85.376586 
L 212.883801 88.352131 
L 213.501169 91.36643 
L 214.118536 94.416033 
L 214.735904 97.497499 
L 215.353271 100.607401 
L 215.970639 103.742332 
L 216.588006 106.898908 
L 217.205374 110.073782 
L 217.822741 113.263639 
L 218.440108 116.465212 
L 219.057476 119.675277 
L 219.674843 122.890669 
L 220.292211 126.108275 
L 220.909578 129.32505 
L 221.526946 132.538013 
L 222.144313 135.744254 
L 222.761681 138.940939 
L 223.379048 142.125313 
L 223.996415 145.294701 
L 224.613783 148.446514 
L 225.23115 151.578251 
L 225.848518 154.6875 
L 226.465885 157.771942 
L 227.083253 160.829353 
L 227.70062 163.857603 
L 228.317988 166.854661 
L 228.935355 169.818594 
L 229.552723 172.74757 
L 230.17009 175.639854 
L 230.787457 178.493815 
L 231.404825 181.30792 
L 232.022192 184.080738 
L 232.63956 186.810938 
L 233.256927 189.497288 
L 233.874295 192.138655 
L 234.491662 194.734005 
L 235.10903 197.2824 
L 235.726397 199.782998 
L 236.343764 202.23505 
L 236.961132 204.6379 
L 237.578499 206.990982 
L 238.195867 209.29382 
L 238.813234 211.54602 
L 239.430602 213.747277 
L 240.047969 215.897365 
L 240.665337 217.996136 
L 241.282704 220.043521 
L 241.900072 222.039525 
L 242.517439 223.984221 
L 243.134806 225.877753 
L 243.752174 227.72033 
L 244.369541 229.512224 
L 244.986909 231.253764 
L 245.604276 232.94534 
L 246.221644 234.587392 
L 246.839011 236.180414 
L 247.456379 237.724944 
L 248.073746 239.221568 
L 248.691113 240.670913 
L 249.308481 242.073645 
L 249.925848 243.430465 
L 250.543216 244.74211 
L 251.160583 246.009344 
L 251.777951 247.232962 
L 252.395318 248.413782 
L 253.012686 249.552644 
L 253.630053 250.650411 
L 254.24742 251.707959 
L 254.864788 252.726183 
L 255.482155 253.705988 
L 256.099523 254.64829 
L 256.71689 255.554014 
L 257.334258 256.424091 
L 257.951625 257.259454 
L 258.568993 258.061041 
L 259.18636 258.829789 
L 259.803728 259.566633 
L 260.421095 260.272507 
L 261.038462 260.948338 
L 261.65583 261.216 
L 262.273197 261.216 
L 262.890565 261.216 
L 263.507932 261.216 
L 264.1253 261.216 
L 264.742667 261.216 
L 265.360035 261.216 
L 265.977402 261.216 
L 266.594769 261.216 
L 267.212137 261.216 
L 267.829504 261.216 
L 268.446872 261.216 
L 269.064239 261.216 
L 269.681607 261.216 
L 270.298974 261.216 
L 270.916342 261.216 
L 271.533709 261.216 
L 272.151077 261.216 
L 272.768444 261.216 
L 273.385811 261.216 
L 274.003179 261.216 
L 274.620546 261.216 
L 275.237914 261.216 
L 275.855281 261.216 
L 276.472649 261.216 
L 277.090016 261.216 
L 277.707384 261.216 
L 278.324751 261.216 
L 278.942118 261.216 
L 279.559486 261.216 
L 280.176853 261.216 
L 280.794221 261.216 
L 281.411588 261.216 
L 282.028956 261.216 
L 282.646323 261.216 
L 283.263691 261.216 
L 283.881058 261.216 
L 284.498425 261.216 
L 285.115793 261.216 
L 285.73316 261.216 
L 286.350528 261.216 
L 286.967895 261.216 
L 287.585263 261.216 
L 288.20263 261.216 
L 288.819998 261.216 
L 289.437365 261.216 
L 290.054733 261.216 
L 290.6721 261.216 
L 291.289467 261.216 
L 291.906835 261.216 
L 292.524202 261.216 
L 293.14157 261.216 
L 293.758937 261.216 
L 294.376305 261.216 
L 294.993672 261.216 
L 295.61104 261.216 
L 296.228407 261.216 
L 296.845774 261.216 
L 297.463142 261.216 
L 298.080509 261.216 
L 298.697877 261.216 
L 299.315244 261.216 
L 299.932612 261.216 
L 300.549979 261.216 
L 301.167347 261.216 
L 301.784714 261.216 
L 302.402082 261.216 
L 303.019449 261.216 
L 303.636816 261.216 
L 304.254184 261.216 
L 304.871551 261.216 
L 305.488919 261.216 
L 306.106286 261.216 
L 306.723654 261.216 
L 307.341021 261.216 
L 307.958389 261.216 
L 308.575756 261.216 
L 309.193123 261.216 
L 309.810491 261.216 
L 310.427858 261.216 
L 311.045226 261.216 
L 311.662593 261.216 
L 312.279961 261.216 
L 312.897328 261.216 
L 313.514696 261.216 
L 314.132063 261.216 
L 314.74943 261.216 
L 315.366798 261.216 
L 315.984165 261.216 
L 316.601533 261.216 
L 317.2189 261.216 
L 317.836268 261.216 
L 318.453635 261.216 
L 319.071003 261.216 
L 319.68837 261.216 
L 320.305738 261.216 
L 320.923105 261.216 
L 321.540472 261.216 
L 322.15784 261.216 
L 322.775207 261.216 
L 323.392575 261.216 
L 324.009942 261.216 
L 324.62731 261.216 
L 325.244677 261.216 
L 325.862045 261.216 
L 326.479412 261.216 
L 327.096779 261.216 
L 327.714147 261.216 
L 328.331514 261.216 
L 328.948882 261.216 
L 329.566249 261.216 
L 330.183617 261.216 
L 330.800984 261.216 
L 331.418352 261.216 
L 332.035719 261.216 
L 332.653087 261.216 
L 333.270454 261.216 
L 333.887821 261.216 
L 334.505189 261.216 
L 335.122556 261.216 
L 335.739924 261.216 
L 336.357291 261.216 
L 336.974659 261.216 
L 337.592026 261.216 
L 338.209394 261.216 
L 338.826761 261.216 
L 339.444128 261.216 
L 340.061496 261.216 
L 340.678863 261.216 
L 341.296231 261.216 
L 341.913598 261.216 
L 342.530966 261.216 
L 343.148333 261.216 
L 343.765701 261.216 
L 344.383068 261.216 
L 345.000435 261.216 
L 345.617803 261.216 
L 346.23517 261.216 
L 346.852538 261.216 
L 347.469905 261.216 
L 348.087273 261.216 
z
" clip-path="url(#p7ad919a751)" style="fill: #069a8e; opacity: 0.5"/>
   </g>
   <g id="patch_6">
    <path d="M 40.020916 261.216 
L 40.638283 261.216 
L 41.255651 261.216 
L 41.873018 261.216 
L 42.490386 261.216 
L 43.107753 261.216 
L 43.72512 261.216 
L 44.342488 261.216 
L 44.959855 261.216 
L 45.577223 261.216 
L 46.19459 261.216 
L 46.811958 261.216 
L 47.429325 261.216 
L 48.046693 261.216 
L 48.66406 261.216 
L 49.281427 261.216 
L 49.898795 261.216 
L 50.516162 261.216 
L 51.13353 261.216 
L 51.750897 261.216 
L 52.368265 261.216 
L 52.985632 261.216 
L 53.603 261.216 
L 54.220367 261.216 
L 54.837735 261.216 
L 55.455102 261.216 
L 56.072469 261.216 
L 56.689837 261.216 
L 57.307204 261.216 
L 57.924572 261.216 
L 58.541939 261.216 
L 59.159307 261.216 
L 59.776674 261.216 
L 60.394042 261.216 
L 61.011409 261.216 
L 61.628776 261.216 
L 62.246144 261.216 
L 62.863511 261.216 
L 63.480879 261.216 
L 64.098246 261.216 
L 64.715614 261.216 
L 65.332981 261.216 
L 65.950349 261.216 
L 66.567716 261.216 
L 67.185083 261.216 
L 67.802451 261.216 
L 68.419818 261.216 
L 69.037186 261.216 
L 69.654553 261.216 
L 70.271921 261.216 
L 70.889288 261.082518 
L 71.506656 260.205904 
L 72.124023 259.282093 
L 72.741391 258.309816 
L 73.358758 257.287875 
L 73.976125 256.215155 
L 74.593493 255.09063 
L 75.21086 253.91338 
L 75.828228 252.682596 
L 76.445595 251.397595 
L 77.062963 250.057827 
L 77.68033 248.66289 
L 78.297698 247.212537 
L 78.915065 245.706687 
L 79.532432 244.145437 
L 80.1498 242.529071 
L 80.767167 240.858069 
L 81.384535 239.133113 
L 82.001902 237.355102 
L 82.61927 235.52515 
L 83.236637 233.644602 
L 83.854005 231.715033 
L 84.471372 229.738256 
L 85.088739 227.716322 
L 85.706107 225.651529 
L 86.323474 223.546416 
L 86.940842 221.403768 
L 87.558209 219.226612 
L 88.175577 217.018216 
L 88.792944 214.782084 
L 89.410312 212.521952 
L 90.027679 210.241778 
L 90.645047 207.945735 
L 91.262414 205.638203 
L 91.879781 203.323755 
L 92.497149 201.007145 
L 93.114516 198.693292 
L 93.731884 196.38727 
L 94.349251 194.094283 
L 94.966619 191.819652 
L 95.583986 189.568794 
L 96.201354 187.347203 
L 96.818721 185.160425 
L 97.436088 183.014039 
L 98.053456 180.913634 
L 98.670823 178.86478 
L 99.288191 176.873012 
L 99.905558 174.943798 
L 100.522926 173.082518 
L 101.140293 171.294439 
L 101.757661 169.58469 
L 102.375028 167.958237 
L 102.992396 166.419858 
L 103.609763 164.974124 
L 104.22713 163.625372 
L 104.844498 162.377684 
L 105.461865 161.234868 
L 106.079233 160.20044 
L 106.6966 159.277601 
L 107.313968 158.469225 
L 107.931335 157.777842 
L 108.548703 157.205626 
L 109.16607 156.754382 
L 109.783437 156.425538 
L 110.400805 156.220138 
L 111.018172 156.138834 
L 111.63554 156.181884 
L 112.252907 156.349152 
L 112.870275 156.640106 
L 113.487642 157.053823 
L 114.10501 157.588992 
L 114.722377 158.243923 
L 115.339744 159.016554 
L 115.957112 159.904464 
L 116.574479 160.904884 
L 117.191847 162.014709 
L 117.809214 163.230521 
L 118.426582 164.548599 
L 119.043949 165.964943 
L 119.661317 167.475292 
L 120.278684 169.075145 
L 120.896052 170.759786 
L 121.513419 172.524302 
L 122.130786 174.363614 
L 122.748154 176.272493 
L 123.365521 178.245593 
L 123.982889 180.277469 
L 124.600256 182.362604 
L 125.217624 184.495437 
L 125.834991 186.670381 
L 126.452359 188.881854 
L 127.069726 191.124294 
L 127.687093 193.392191 
L 128.304461 195.680102 
L 128.921828 197.982674 
L 129.539196 200.294664 
L 130.156563 202.610957 
L 130.773931 204.926585 
L 131.391298 207.23674 
L 132.008666 209.536794 
L 132.626033 211.822305 
L 133.243401 214.089036 
L 133.860768 216.332961 
L 134.478135 218.550274 
L 135.095503 220.737402 
L 135.71287 222.891001 
L 136.330238 225.007972 
L 136.947605 227.085453 
L 137.564973 229.12083 
L 138.18234 231.111732 
L 138.799708 233.05603 
L 139.417075 234.95184 
L 140.034442 236.797514 
L 140.65181 238.591636 
L 141.269177 240.333022 
L 141.886545 242.020708 
L 142.503912 243.653946 
L 143.12128 245.232193 
L 143.738647 246.755108 
L 144.356015 248.222537 
L 144.973382 249.634507 
L 145.590749 250.991214 
L 146.208117 252.293014 
L 146.825484 253.540413 
L 147.442852 254.734055 
L 148.060219 255.87471 
L 148.677587 256.963265 
L 149.294954 258.000716 
L 149.912322 258.98815 
L 150.529689 259.926742 
L 151.147057 260.817739 
L 151.764424 261.216 
L 152.381791 261.216 
L 152.999159 261.216 
L 153.616526 261.216 
L 154.233894 261.216 
L 154.851261 261.216 
L 155.468629 261.216 
L 156.085996 261.216 
L 156.703364 261.216 
L 157.320731 261.216 
L 157.938098 261.216 
L 158.555466 261.216 
L 159.172833 261.216 
L 159.790201 261.216 
L 160.407568 261.216 
L 161.024936 261.216 
L 161.642303 261.216 
L 162.259671 261.216 
L 162.877038 261.216 
L 163.494406 261.216 
L 164.111773 261.216 
L 164.72914 261.216 
L 165.346508 261.216 
L 165.963875 261.216 
L 166.581243 261.216 
L 167.19861 261.216 
L 167.815978 261.216 
L 168.433345 261.216 
L 169.050713 261.216 
L 169.66808 261.216 
L 170.285447 261.216 
L 170.902815 261.216 
L 171.520182 261.216 
L 172.13755 261.216 
L 172.754917 261.216 
L 173.372285 261.216 
L 173.989652 261.216 
L 174.60702 261.216 
L 175.224387 261.216 
L 175.841754 261.216 
L 176.459122 261.216 
L 177.076489 261.216 
L 177.693857 261.216 
L 178.311224 261.216 
L 178.928592 261.216 
L 179.545959 261.216 
L 180.163327 261.216 
L 180.780694 261.216 
L 181.398062 261.216 
L 182.015429 261.216 
L 182.632796 261.216 
L 183.250164 261.216 
L 183.867531 261.216 
L 184.484899 261.216 
L 185.102266 261.216 
L 185.719634 261.216 
L 186.337001 261.216 
L 186.954369 261.216 
L 187.571736 261.216 
L 188.189103 261.216 
L 188.806471 261.216 
L 189.423838 261.216 
L 190.041206 261.216 
L 190.658573 261.216 
L 191.275941 261.216 
L 191.893308 261.216 
L 192.510676 261.216 
L 193.128043 261.216 
L 193.745411 261.216 
L 194.362778 261.216 
L 194.980145 261.216 
L 195.597513 261.216 
L 196.21488 261.216 
L 196.832248 261.216 
L 197.449615 261.216 
L 198.066983 261.216 
L 198.68435 261.216 
L 199.301718 261.216 
L 199.919085 261.216 
L 200.536452 261.216 
L 201.15382 261.216 
L 201.771187 261.216 
L 202.388555 261.216 
L 203.005922 261.216 
L 203.62329 261.216 
L 204.240657 261.216 
L 204.858025 261.216 
L 205.475392 261.216 
L 206.092759 261.216 
L 206.710127 261.216 
L 207.327494 261.216 
L 207.944862 261.216 
L 208.562229 261.216 
L 209.179597 261.216 
L 209.796964 261.216 
L 210.414332 261.216 
L 211.031699 261.216 
L 211.649067 261.216 
L 212.266434 261.216 
L 212.883801 261.216 
L 213.501169 261.216 
L 214.118536 261.216 
L 214.735904 261.216 
L 215.353271 261.216 
L 215.970639 261.216 
L 216.588006 261.216 
L 217.205374 261.216 
L 217.822741 261.216 
L 218.440108 261.216 
L 219.057476 261.216 
L 219.674843 261.216 
L 220.292211 261.216 
L 220.909578 261.216 
L 221.526946 261.216 
L 222.144313 261.216 
L 222.761681 261.216 
L 223.379048 261.216 
L 223.996415 261.216 
L 224.613783 261.216 
L 225.23115 261.216 
L 225.848518 261.216 
L 226.465885 261.216 
L 227.083253 261.216 
L 227.70062 261.216 
L 228.317988 261.216 
L 228.935355 261.216 
L 229.552723 261.216 
L 230.17009 261.216 
L 230.787457 261.216 
L 231.404825 261.216 
L 232.022192 261.216 
L 232.63956 261.216 
L 233.256927 261.216 
L 233.874295 261.216 
L 234.491662 261.216 
L 235.10903 261.216 
L 235.726397 261.216 
L 236.343764 261.216 
L 236.961132 261.216 
L 237.578499 261.216 
L 238.195867 261.216 
L 238.813234 261.216 
L 239.430602 261.216 
L 240.047969 261.216 
L 240.665337 261.216 
L 241.282704 261.216 
L 241.900072 261.216 
L 242.517439 261.216 
L 243.134806 261.216 
L 243.752174 261.216 
L 244.369541 261.216 
L 244.986909 261.216 
L 245.604276 261.216 
L 246.221644 261.216 
L 246.839011 261.216 
L 247.456379 261.216 
L 248.073746 261.216 
L 248.691113 261.216 
L 249.308481 261.216 
L 249.925848 261.216 
L 250.543216 261.216 
L 251.160583 261.216 
L 251.777951 261.216 
L 252.395318 261.216 
L 253.012686 261.216 
L 253.630053 261.216 
L 254.24742 261.216 
L 254.864788 261.216 
L 255.482155 261.216 
L 256.099523 261.216 
L 256.71689 261.216 
L 257.334258 261.216 
L 257.951625 261.216 
L 258.568993 261.216 
L 259.18636 261.216 
L 259.803728 261.216 
L 260.421095 261.216 
L 261.038462 261.216 
L 261.65583 261.216 
L 262.273197 261.216 
L 262.890565 261.216 
L 263.507932 261.216 
L 264.1253 261.216 
L 264.742667 261.216 
L 265.360035 261.216 
L 265.977402 261.216 
L 266.594769 261.216 
L 267.212137 261.216 
L 267.829504 261.216 
L 268.446872 261.216 
L 269.064239 261.216 
L 269.681607 261.216 
L 270.298974 261.216 
L 270.916342 261.216 
L 271.533709 261.216 
L 272.151077 261.216 
L 272.768444 261.216 
L 273.385811 261.216 
L 274.003179 261.216 
L 274.620546 261.216 
L 275.237914 261.216 
L 275.855281 261.216 
L 276.472649 261.216 
L 277.090016 261.216 
L 277.707384 261.216 
L 278.324751 261.216 
L 278.942118 261.216 
L 279.559486 261.216 
L 280.176853 261.216 
L 280.794221 261.216 
L 281.411588 261.216 
L 282.028956 261.216 
L 282.646323 261.216 
L 283.263691 261.216 
L 283.881058 261.216 
L 284.498425 261.216 
L 285.115793 261.216 
L 285.73316 261.216 
L 286.350528 261.216 
L 286.967895 261.216 
L 287.585263 261.216 
L 288.20263 261.216 
L 288.819998 261.216 
L 289.437365 261.216 
L 290.054733 261.216 
L 290.6721 261.216 
L 291.289467 261.216 
L 291.906835 261.216 
L 292.524202 261.216 
L 293.14157 261.216 
L 293.758937 261.216 
L 294.376305 261.216 
L 294.993672 261.216 
L 295.61104 261.216 
L 296.228407 261.216 
L 296.845774 261.216 
L 297.463142 261.216 
L 298.080509 261.216 
L 298.697877 261.216 
L 299.315244 261.216 
L 299.932612 261.216 
L 300.549979 261.216 
L 301.167347 261.216 
L 301.784714 261.216 
L 302.402082 261.216 
L 303.019449 261.216 
L 303.636816 261.216 
L 304.254184 261.216 
L 304.871551 261.216 
L 305.488919 261.216 
L 306.106286 261.216 
L 306.723654 261.216 
L 307.341021 261.216 
L 307.958389 261.216 
L 308.575756 261.216 
L 309.193123 261.216 
L 309.810491 261.216 
L 310.427858 261.216 
L 311.045226 261.216 
L 311.662593 261.216 
L 312.279961 261.216 
L 312.897328 261.216 
L 313.514696 261.216 
L 314.132063 261.216 
L 314.74943 261.216 
L 315.366798 261.216 
L 315.984165 261.216 
L 316.601533 261.216 
L 317.2189 261.216 
L 317.836268 261.216 
L 318.453635 261.216 
L 319.071003 261.216 
L 319.68837 261.216 
L 320.305738 261.216 
L 320.923105 261.216 
L 321.540472 261.216 
L 322.15784 261.216 
L 322.775207 261.216 
L 323.392575 261.216 
L 324.009942 261.216 
L 324.62731 261.216 
L 325.244677 261.216 
L 325.862045 261.216 
L 326.479412 261.216 
L 327.096779 261.216 
L 327.714147 261.216 
L 328.331514 261.216 
L 328.948882 261.216 
L 329.566249 261.216 
L 330.183617 261.216 
L 330.800984 261.216 
L 331.418352 261.216 
L 332.035719 261.216 
L 332.653087 261.216 
L 333.270454 261.216 
L 333.887821 261.216 
L 334.505189 261.216 
L 335.122556 261.216 
L 335.739924 261.216 
L 336.357291 261.216 
L 336.974659 261.216 
L 337.592026 261.216 
L 338.209394 261.216 
L 338.826761 261.216 
L 339.444128 261.216 
L 340.061496 261.216 
L 340.678863 261.216 
L 341.296231 261.216 
L 341.913598 261.216 
L 342.530966 261.216 
L 343.148333 261.216 
L 343.765701 261.216 
L 344.383068 261.216 
L 345.000435 261.216 
L 345.617803 261.216 
L 346.23517 261.216 
L 346.852538 261.216 
L 347.469905 261.216 
L 348.087273 261.216 
z
" clip-path="url(#p7ad919a751)" style="fill: #b983ff; opacity: 0.5"/>
   </g>
   <g id="matplotlib.axis_1">
    <g id="xtick_1"/>
    <g id="xtick_2"/>
    <g id="xtick_3"/>
    <g id="xtick_4"/>
    <g id="xtick_5"/>
    <g id="xtick_6"/>
    <g id="xtick_7"/>
    <g id="xtick_8"/>
   </g>
   <g id="matplotlib.axis_2">
    <g id="ytick_1"/>
    <g id="ytick_2"/>
    <g id="ytick_3"/>
    <g id="ytick_4"/>
    <g id="ytick_5"/>
    <g id="ytick_6"/>
   </g>
   <g id="text_1">
    <!-- DARA   -->
    <g style="fill: #1b4242" transform="translate(355.196496 143.528334) scale(0.96 -0.96)">
     <defs>
      <path id="DejaVuSans-Bold-44" d="M 1791 3756 
L 1791 909 
L 2222 909 
Q 2959 909 3348 1275 
Q 3738 1641 3738 2338 
Q 3738 3031 3350 3393 
Q 2963 3756 2222 3756 
L 1791 3756 
z
M 588 4666 
L 1856 4666 
Q 2919 4666 3439 4514 
Q 3959 4363 4331 4000 
Q 4659 3684 4818 3271 
Q 4978 2859 4978 2338 
Q 4978 1809 4818 1395 
Q 4659 981 4331 666 
Q 3956 303 3431 151 
Q 2906 0 1856 0 
L 588 0 
L 588 4666 
z
" transform="scale(0.015625)"/>
      <path id="DejaVuSans-Bold-41" d="M 3419 850 
L 1538 850 
L 1241 0 
L 31 0 
L 1759 4666 
L 3194 4666 
L 4922 0 
L 3713 0 
L 3419 850 
z
M 1838 1716 
L 3116 1716 
L 2478 3572 
L 1838 1716 
z
" transform="scale(0.015625)"/>
      <path id="DejaVuSans-Bold-52" d="M 2297 2597 
Q 2675 2597 2839 2737 
Q 3003 2878 3003 3200 
Q 3003 3519 2839 3656 
Q 2675 3794 2297 3794 
L 1791 3794 
L 1791 2597 
L 2297 2597 
z
M 1791 1766 
L 1791 0 
L 588 0 
L 588 4666 
L 2425 4666 
Q 3347 4666 3776 4356 
Q 4206 4047 4206 3378 
Q 4206 2916 3982 2619 
Q 3759 2322 3309 2181 
Q 3556 2125 3751 1926 
Q 3947 1728 4147 1325 
L 4800 0 
L 3519 0 
L 2950 1159 
Q 2778 1509 2601 1637 
Q 2425 1766 2131 1766 
L 1791 1766 
z
" transform="scale(0.015625)"/>
      <path id="DejaVuSans-Bold-20" transform="scale(0.015625)"/>
     </defs>
     <use xlink:href="#DejaVuSans-Bold-44"/>
     <use xlink:href="#DejaVuSans-Bold-41" x="83.007812"/>
     <use xlink:href="#DejaVuSans-Bold-52" x="160.400391"/>
     <use xlink:href="#DejaVuSans-Bold-41" x="237.402344"/>
     <use xlink:href="#DejaVuSans-Bold-20" x="314.794922"/>
     <use xlink:href="#DejaVuSans-Bold-20" x="349.609375"/>
    </g>
   </g>
   <g id="text_2">
    <!-- Data-driven automated Rietveld analysis -->
    <g style="fill: #5c8374" transform="translate(359.935979 206.835217) scale(0.28 -0.28)">
     <defs>
      <path id="DejaVuSans-44" d="M 1259 4147 
L 1259 519 
L 2022 519 
Q 2988 519 3436 956 
Q 3884 1394 3884 2338 
Q 3884 3275 3436 3711 
Q 2988 4147 2022 4147 
L 1259 4147 
z
M 628 4666 
L 1925 4666 
Q 3281 4666 3915 4102 
Q 4550 3538 4550 2338 
Q 4550 1131 3912 565 
Q 3275 0 1925 0 
L 628 0 
L 628 4666 
z
" transform="scale(0.015625)"/>
      <path id="DejaVuSans-61" d="M 2194 1759 
Q 1497 1759 1228 1600 
Q 959 1441 959 1056 
Q 959 750 1161 570 
Q 1363 391 1709 391 
Q 2188 391 2477 730 
Q 2766 1069 2766 1631 
L 2766 1759 
L 2194 1759 
z
M 3341 1997 
L 3341 0 
L 2766 0 
L 2766 531 
Q 2569 213 2275 61 
Q 1981 -91 1556 -91 
Q 1019 -91 701 211 
Q 384 513 384 1019 
Q 384 1609 779 1909 
Q 1175 2209 1959 2209 
L 2766 2209 
L 2766 2266 
Q 2766 2663 2505 2880 
Q 2244 3097 1772 3097 
Q 1472 3097 1187 3025 
Q 903 2953 641 2809 
L 641 3341 
Q 956 3463 1253 3523 
Q 1550 3584 1831 3584 
Q 2591 3584 2966 3190 
Q 3341 2797 3341 1997 
z
" transform="scale(0.015625)"/>
      <path id="DejaVuSans-74" d="M 1172 4494 
L 1172 3500 
L 2356 3500 
L 2356 3053 
L 1172 3053 
L 1172 1153 
Q 1172 725 1289 603 
Q 1406 481 1766 481 
L 2356 481 
L 2356 0 
L 1766 0 
Q 1100 0 847 248 
Q 594 497 594 1153 
L 594 3053 
L 172 3053 
L 172 3500 
L 594 3500 
L 594 4494 
L 1172 4494 
z
" transform="scale(0.015625)"/>
      <path id="DejaVuSans-2d" d="M 313 2009 
L 1997 2009 
L 1997 1497 
L 313 1497 
L 313 2009 
z
" transform="scale(0.015625)"/>
      <path id="DejaVuSans-64" d="M 2906 2969 
L 2906 4863 
L 3481 4863 
L 3481 0 
L 2906 0 
L 2906 525 
Q 2725 213 2448 61 
Q 2172 -91 1784 -91 
Q 1150 -91 751 415 
Q 353 922 353 1747 
Q 353 2572 751 3078 
Q 1150 3584 1784 3584 
Q 2172 3584 2448 3432 
Q 2725 3281 2906 2969 
z
M 947 1747 
Q 947 1113 1208 752 
Q 1469 391 1925 391 
Q 2381 391 2643 752 
Q 2906 1113 2906 1747 
Q 2906 2381 2643 2742 
Q 2381 3103 1925 3103 
Q 1469 3103 1208 2742 
Q 947 2381 947 1747 
z
" transform="scale(0.015625)"/>
      <path id="DejaVuSans-72" d="M 2631 2963 
Q 2534 3019 2420 3045 
Q 2306 3072 2169 3072 
Q 1681 3072 1420 2755 
Q 1159 2438 1159 1844 
L 1159 0 
L 581 0 
L 581 3500 
L 1159 3500 
L 1159 2956 
Q 1341 3275 1631 3429 
Q 1922 3584 2338 3584 
Q 2397 3584 2469 3576 
Q 2541 3569 2628 3553 
L 2631 2963 
z
" transform="scale(0.015625)"/>
      <path id="DejaVuSans-69" d="M 603 3500 
L 1178 3500 
L 1178 0 
L 603 0 
L 603 3500 
z
M 603 4863 
L 1178 4863 
L 1178 4134 
L 603 4134 
L 603 4863 
z
" transform="scale(0.015625)"/>
      <path id="DejaVuSans-76" d="M 191 3500 
L 800 3500 
L 1894 563 
L 2988 3500 
L 3597 3500 
L 2284 0 
L 1503 0 
L 191 3500 
z
" transform="scale(0.015625)"/>
      <path id="DejaVuSans-65" d="M 3597 1894 
L 3597 1613 
L 953 1613 
Q 991 1019 1311 708 
Q 1631 397 2203 397 
Q 2534 397 2845 478 
Q 3156 559 3463 722 
L 3463 178 
Q 3153 47 2828 -22 
Q 2503 -91 2169 -91 
Q 1331 -91 842 396 
Q 353 884 353 1716 
Q 353 2575 817 3079 
Q 1281 3584 2069 3584 
Q 2775 3584 3186 3129 
Q 3597 2675 3597 1894 
z
M 3022 2063 
Q 3016 2534 2758 2815 
Q 2500 3097 2075 3097 
Q 1594 3097 1305 2825 
Q 1016 2553 972 2059 
L 3022 2063 
z
" transform="scale(0.015625)"/>
      <path id="DejaVuSans-6e" d="M 3513 2113 
L 3513 0 
L 2938 0 
L 2938 2094 
Q 2938 2591 2744 2837 
Q 2550 3084 2163 3084 
Q 1697 3084 1428 2787 
Q 1159 2491 1159 1978 
L 1159 0 
L 581 0 
L 581 3500 
L 1159 3500 
L 1159 2956 
Q 1366 3272 1645 3428 
Q 1925 3584 2291 3584 
Q 2894 3584 3203 3211 
Q 3513 2838 3513 2113 
z
" transform="scale(0.015625)"/>
      <path id="DejaVuSans-20" transform="scale(0.015625)"/>
      <path id="DejaVuSans-75" d="M 544 1381 
L 544 3500 
L 1119 3500 
L 1119 1403 
Q 1119 906 1312 657 
Q 1506 409 1894 409 
Q 2359 409 2629 706 
Q 2900 1003 2900 1516 
L 2900 3500 
L 3475 3500 
L 3475 0 
L 2900 0 
L 2900 538 
Q 2691 219 2414 64 
Q 2138 -91 1772 -91 
Q 1169 -91 856 284 
Q 544 659 544 1381 
z
M 1991 3584 
L 1991 3584 
z
" transform="scale(0.015625)"/>
      <path id="DejaVuSans-6f" d="M 1959 3097 
Q 1497 3097 1228 2736 
Q 959 2375 959 1747 
Q 959 1119 1226 758 
Q 1494 397 1959 397 
Q 2419 397 2687 759 
Q 2956 1122 2956 1747 
Q 2956 2369 2687 2733 
Q 2419 3097 1959 3097 
z
M 1959 3584 
Q 2709 3584 3137 3096 
Q 3566 2609 3566 1747 
Q 3566 888 3137 398 
Q 2709 -91 1959 -91 
Q 1206 -91 779 398 
Q 353 888 353 1747 
Q 353 2609 779 3096 
Q 1206 3584 1959 3584 
z
" transform="scale(0.015625)"/>
      <path id="DejaVuSans-6d" d="M 3328 2828 
Q 3544 3216 3844 3400 
Q 4144 3584 4550 3584 
Q 5097 3584 5394 3201 
Q 5691 2819 5691 2113 
L 5691 0 
L 5113 0 
L 5113 2094 
Q 5113 2597 4934 2840 
Q 4756 3084 4391 3084 
Q 3944 3084 3684 2787 
Q 3425 2491 3425 1978 
L 3425 0 
L 2847 0 
L 2847 2094 
Q 2847 2600 2669 2842 
Q 2491 3084 2119 3084 
Q 1678 3084 1418 2786 
Q 1159 2488 1159 1978 
L 1159 0 
L 581 0 
L 581 3500 
L 1159 3500 
L 1159 2956 
Q 1356 3278 1631 3431 
Q 1906 3584 2284 3584 
Q 2666 3584 2933 3390 
Q 3200 3197 3328 2828 
z
" transform="scale(0.015625)"/>
      <path id="DejaVuSans-52" d="M 2841 2188 
Q 3044 2119 3236 1894 
Q 3428 1669 3622 1275 
L 4263 0 
L 3584 0 
L 2988 1197 
Q 2756 1666 2539 1819 
Q 2322 1972 1947 1972 
L 1259 1972 
L 1259 0 
L 628 0 
L 628 4666 
L 2053 4666 
Q 2853 4666 3247 4331 
Q 3641 3997 3641 3322 
Q 3641 2881 3436 2590 
Q 3231 2300 2841 2188 
z
M 1259 4147 
L 1259 2491 
L 2053 2491 
Q 2509 2491 2742 2702 
Q 2975 2913 2975 3322 
Q 2975 3731 2742 3939 
Q 2509 4147 2053 4147 
L 1259 4147 
z
" transform="scale(0.015625)"/>
      <path id="DejaVuSans-6c" d="M 603 4863 
L 1178 4863 
L 1178 0 
L 603 0 
L 603 4863 
z
" transform="scale(0.015625)"/>
      <path id="DejaVuSans-79" d="M 2059 -325 
Q 1816 -950 1584 -1140 
Q 1353 -1331 966 -1331 
L 506 -1331 
L 506 -850 
L 844 -850 
Q 1081 -850 1212 -737 
Q 1344 -625 1503 -206 
L 1606 56 
L 191 3500 
L 800 3500 
L 1894 763 
L 2988 3500 
L 3597 3500 
L 2059 -325 
z
" transform="scale(0.015625)"/>
      <path id="DejaVuSans-73" d="M 2834 3397 
L 2834 2853 
Q 2591 2978 2328 3040 
Q 2066 3103 1784 3103 
Q 1356 3103 1142 2972 
Q 928 2841 928 2578 
Q 928 2378 1081 2264 
Q 1234 2150 1697 2047 
L 1894 2003 
Q 2506 1872 2764 1633 
Q 3022 1394 3022 966 
Q 3022 478 2636 193 
Q 2250 -91 1575 -91 
Q 1294 -91 989 -36 
Q 684 19 347 128 
L 347 722 
Q 666 556 975 473 
Q 1284 391 1588 391 
Q 1994 391 2212 530 
Q 2431 669 2431 922 
Q 2431 1156 2273 1281 
Q 2116 1406 1581 1522 
L 1381 1569 
Q 847 1681 609 1914 
Q 372 2147 372 2553 
Q 372 3047 722 3315 
Q 1072 3584 1716 3584 
Q 2034 3584 2315 3537 
Q 2597 3491 2834 3397 
z
" transform="scale(0.015625)"/>
     </defs>
     <use xlink:href="#DejaVuSans-44"/>
     <use xlink:href="#DejaVuSans-61" x="77.001953"/>
     <use xlink:href="#DejaVuSans-74" x="138.28125"/>
     <use xlink:href="#DejaVuSans-61" x="177.490234"/>
     <use xlink:href="#DejaVuSans-2d" x="238.769531"/>
     <use xlink:href="#DejaVuSans-64" x="274.853516"/>
     <use xlink:href="#DejaVuSans-72" x="338.330078"/>
     <use xlink:href="#DejaVuSans-69" x="379.443359"/>
     <use xlink:href="#DejaVuSans-76" x="407.226562"/>
     <use xlink:href="#DejaVuSans-65" x="466.40625"/>
     <use xlink:href="#DejaVuSans-6e" x="527.929688"/>
     <use xlink:href="#DejaVuSans-20" x="591.308594"/>
     <use xlink:href="#DejaVuSans-61" x="623.095703"/>
     <use xlink:href="#DejaVuSans-75" x="684.375"/>
     <use xlink:href="#DejaVuSans-74" x="747.753906"/>
     <use xlink:href="#DejaVuSans-6f" x="786.962891"/>
     <use xlink:href="#DejaVuSans-6d" x="848.144531"/>
     <use xlink:href="#DejaVuSans-61" x="945.556641"/>
     <use xlink:href="#DejaVuSans-74" x="1006.835938"/>
     <use xlink:href="#DejaVuSans-65" x="1046.044922"/>
     <use xlink:href="#DejaVuSans-64" x="1107.568359"/>
     <use xlink:href="#DejaVuSans-20" x="1171.044922"/>
     <use xlink:href="#DejaVuSans-52" x="1202.832031"/>
     <use xlink:href="#DejaVuSans-69" x="1272.314453"/>
     <use xlink:href="#DejaVuSans-65" x="1300.097656"/>
     <use xlink:href="#DejaVuSans-74" x="1361.621094"/>
     <use xlink:href="#DejaVuSans-76" x="1400.830078"/>
     <use xlink:href="#DejaVuSans-65" x="1460.009766"/>
     <use xlink:href="#DejaVuSans-6c" x="1521.533203"/>
     <use xlink:href="#DejaVuSans-64" x="1549.316406"/>
     <use xlink:href="#DejaVuSans-20" x="1612.792969"/>
     <use xlink:href="#DejaVuSans-61" x="1644.580078"/>
     <use xlink:href="#DejaVuSans-6e" x="1705.859375"/>
     <use xlink:href="#DejaVuSans-61" x="1769.238281"/>
     <use xlink:href="#DejaVuSans-6c" x="1830.517578"/>
     <use xlink:href="#DejaVuSans-79" x="1858.300781"/>
     <use xlink:href="#DejaVuSans-73" x="1917.480469"/>
     <use xlink:href="#DejaVuSans-69" x="1969.580078"/>
     <use xlink:href="#DejaVuSans-73" x="1997.363281"/>
    </g>
    <!-- for phase search and refinement -->
    <g style="fill: #5c8374" transform="translate(359.935979 238.189092) scale(0.28 -0.28)">
     <defs>
      <path id="DejaVuSans-66" d="M 2375 4863 
L 2375 4384 
L 1825 4384 
Q 1516 4384 1395 4259 
Q 1275 4134 1275 3809 
L 1275 3500 
L 2222 3500 
L 2222 3053 
L 1275 3053 
L 1275 0 
L 697 0 
L 697 3053 
L 147 3053 
L 147 3500 
L 697 3500 
L 697 3744 
Q 697 4328 969 4595 
Q 1241 4863 1831 4863 
L 2375 4863 
z
" transform="scale(0.015625)"/>
      <path id="DejaVuSans-70" d="M 1159 525 
L 1159 -1331 
L 581 -1331 
L 581 3500 
L 1159 3500 
L 1159 2969 
Q 1341 3281 1617 3432 
Q 1894 3584 2278 3584 
Q 2916 3584 3314 3078 
Q 3713 2572 3713 1747 
Q 3713 922 3314 415 
Q 2916 -91 2278 -91 
Q 1894 -91 1617 61 
Q 1341 213 1159 525 
z
M 3116 1747 
Q 3116 2381 2855 2742 
Q 2594 3103 2138 3103 
Q 1681 3103 1420 2742 
Q 1159 2381 1159 1747 
Q 1159 1113 1420 752 
Q 1681 391 2138 391 
Q 2594 391 2855 752 
Q 3116 1113 3116 1747 
z
" transform="scale(0.015625)"/>
      <path id="DejaVuSans-68" d="M 3513 2113 
L 3513 0 
L 2938 0 
L 2938 2094 
Q 2938 2591 2744 2837 
Q 2550 3084 2163 3084 
Q 1697 3084 1428 2787 
Q 1159 2491 1159 1978 
L 1159 0 
L 581 0 
L 581 4863 
L 1159 4863 
L 1159 2956 
Q 1366 3272 1645 3428 
Q 1925 3584 2291 3584 
Q 2894 3584 3203 3211 
Q 3513 2838 3513 2113 
z
" transform="scale(0.015625)"/>
      <path id="DejaVuSans-63" d="M 3122 3366 
L 3122 2828 
Q 2878 2963 2633 3030 
Q 2388 3097 2138 3097 
Q 1578 3097 1268 2742 
Q 959 2388 959 1747 
Q 959 1106 1268 751 
Q 1578 397 2138 397 
Q 2388 397 2633 464 
Q 2878 531 3122 666 
L 3122 134 
Q 2881 22 2623 -34 
Q 2366 -91 2075 -91 
Q 1284 -91 818 406 
Q 353 903 353 1747 
Q 353 2603 823 3093 
Q 1294 3584 2113 3584 
Q 2378 3584 2631 3529 
Q 2884 3475 3122 3366 
z
" transform="scale(0.015625)"/>
     </defs>
     <use xlink:href="#DejaVuSans-66"/>
     <use xlink:href="#DejaVuSans-6f" x="35.205078"/>
     <use xlink:href="#DejaVuSans-72" x="96.386719"/>
     <use xlink:href="#DejaVuSans-20" x="137.5"/>
     <use xlink:href="#DejaVuSans-70" x="169.287109"/>
     <use xlink:href="#DejaVuSans-68" x="232.763672"/>
     <use xlink:href="#DejaVuSans-61" x="296.142578"/>
     <use xlink:href="#DejaVuSans-73" x="357.421875"/>
     <use xlink:href="#DejaVuSans-65" x="409.521484"/>
     <use xlink:href="#DejaVuSans-20" x="471.044922"/>
     <use xlink:href="#DejaVuSans-73" x="502.832031"/>
     <use xlink:href="#DejaVuSans-65" x="554.931641"/>
     <use xlink:href="#DejaVuSans-61" x="616.455078"/>
     <use xlink:href="#DejaVuSans-72" x="677.734375"/>
     <use xlink:href="#DejaVuSans-63" x="716.597656"/>
     <use xlink:href="#DejaVuSans-68" x="771.578125"/>
     <use xlink:href="#DejaVuSans-20" x="834.957031"/>
     <use xlink:href="#DejaVuSans-61" x="866.744141"/>
     <use xlink:href="#DejaVuSans-6e" x="928.023438"/>
     <use xlink:href="#DejaVuSans-64" x="991.402344"/>
     <use xlink:href="#DejaVuSans-20" x="1054.878906"/>
     <use xlink:href="#DejaVuSans-72" x="1086.666016"/>
     <use xlink:href="#DejaVuSans-65" x="1125.529297"/>
     <use xlink:href="#DejaVuSans-66" x="1187.052734"/>
     <use xlink:href="#DejaVuSans-69" x="1222.257812"/>
     <use xlink:href="#DejaVuSans-6e" x="1250.041016"/>
     <use xlink:href="#DejaVuSans-65" x="1313.419922"/>
     <use xlink:href="#DejaVuSans-6d" x="1374.943359"/>
     <use xlink:href="#DejaVuSans-65" x="1472.355469"/>
     <use xlink:href="#DejaVuSans-6e" x="1533.878906"/>
     <use xlink:href="#DejaVuSans-74" x="1597.257812"/>
    </g>
   </g>
  </g>
 </g>
 <defs>
  <clipPath id="p7ad919a751">
   <rect x="7.2" y="7.2" width="357.12" height="266.112"/>
  </clipPath>
 </defs>
</svg>
